<svg id="Layer_1" data-name="Layer 1" xmlns="http://www.w3.org/2000/svg" xmlns:xlink="http://www.w3.org/1999/xlink" viewBox="0 0 1219 459"><defs><style>.cls-1{fill:none;}.cls-2{fill:#fff;}.cls-3{fill:#f43737;}.cls-4{clip-path:url(#clip-path);}</style><clipPath id="clip-path"><rect class="cls-1" x="-29.17" y="1016" width="665.98" height="432.23"/></clipPath></defs><title>Assets para layout do front</title><path class="cls-2" d="M114.93,140.14c0,6.65-3.38,9.16-9.81,9.16H91.05v32.06H76.76v-87h28.36c6.43,0,9.81,2.62,9.81,9.27Zm-14.28-3.71V107.2h-9.6v29.23Z"/><path class="cls-2" d="M151.57,181.36H120.82v-87H135.1v74.16h16.47Z"/><path class="cls-2" d="M194.86,181.36H180.58V149.3h-9.71v32.06H156.58V103.6c0-6.65,3.49-9.27,9.93-9.27h18.54c6.43,0,9.81,2.62,9.81,9.27Zm-14.28-44.82V107.2h-9.71v29.34Z"/><path class="cls-2" d="M239.14,107.2H226.6v74.16H212.31V107.2H199.88V94.33h39.26Z"/><path class="cls-2" d="M282.43,181.36H268.14V149.3h-9.7v32.06H244.15V103.6c0-6.65,3.49-9.27,9.92-9.27h18.54c6.44,0,9.82,2.62,9.82,9.27Zm-14.29-44.82V107.2h-9.7v29.34Z"/><path class="cls-2" d="M319.61,144.72H303v36.64H288.75v-87h30.86V107.2H303v24.86h16.57Z"/><path class="cls-2" d="M362.8,172.42c0,6.21-3.06,8.94-9.49,8.94H334.22c-6.1,0-9.59-2.51-9.59-8.94V103.27c0-6,3.16-8.94,9.59-8.94h19.09c6.22,0,9.49,2.51,9.49,8.94Zm-14.29-3.93V107.2h-9.6v61.29Z"/><path class="cls-2" d="M407.29,181.36H393V149.3h-9.59v32.06H369.12v-87h28.35c6.44,0,9.82,2.62,9.82,9.27v32.06c0,4.26-2,6.22-5.24,7.2v.33c3.17.33,5.24,2.29,5.24,6.54ZM393,136.54V107.2h-9.59v29.34Z"/><path class="cls-2" d="M472.83,181.36H458.54V107.2h-8.07v74.16H436.18V107.2H427.9v74.16H413.61v-87H462.9c6.44,0,9.93,2.62,9.93,9.27Z"/><path class="cls-2" d="M517.43,181.36H503.14V149.3h-9.7v32.06H479.15V103.6c0-6.65,3.49-9.27,9.92-9.27h18.54c6.44,0,9.82,2.62,9.82,9.27Zm-14.29-44.82V107.2h-9.7v29.34Z"/><path class="cls-2" d="M582.75,172.42c0,6-3.39,8.94-9.6,8.94H544.58v-87h28.57c6,0,9.6,2.4,9.6,8.94Zm-14.29-3.93V107.2h-9.6v61.29Z"/><path class="cls-2" d="M619.71,181.36H589v-87h30.75V107.2H603.24v24.86h15.38v12.66H603.24v23.77h16.47Z"/><path class="cls-2" d="M683.94,181.36H669.65V149.3H660v32.06H645.66V103.6c0-6.65,3.49-9.27,9.93-9.27h18.54c6.43,0,9.81,2.62,9.81,9.27Zm-14.29-44.82V107.2H660v29.34Z"/><path class="cls-2" d="M721,181.36H699.86c-6.43,0-9.6-2.4-9.6-8.94V103.27c0-6.54,3.17-8.94,9.6-8.94H721V107.2H704.55v61.29H721Z"/><path class="cls-2" d="M756.78,181.36H726v-87h30.75V107.2H740.32v24.86h15.37v12.66H740.32v23.77h16.46Z"/><path class="cls-2" d="M797.67,172.42c0,6.54-3.37,8.94-9.7,8.94H761.8V168.49h21.59V144.72H771c-6.66,0-9.16-3.39-9.16-9.82V103.6c0-6.65,3.38-9.27,9.81-9.27h24V107.2H776.08v24.86h12.43c6.66,0,9.16,3.49,9.16,9.93Z"/><path class="cls-2" d="M839.88,172.42c0,6.54-3.38,8.94-9.71,8.94H804V168.49h21.59V144.72H813.16c-6.65,0-9.16-3.39-9.16-9.82V103.6c0-6.65,3.38-9.27,9.81-9.27h24V107.2H818.28v24.86h12.44c6.65,0,9.16,3.49,9.16,9.93Z"/><path class="cls-2" d="M884.37,172.42c0,6.21-3.06,8.94-9.49,8.94H855.8c-6.11,0-9.6-2.51-9.6-8.94V103.27c0-6,3.16-8.94,9.6-8.94h19.08c6.22,0,9.49,2.51,9.49,8.94Zm-14.29-3.93V107.2h-9.6v61.29Z"/><path class="cls-3" d="M949.8,181.36H935.51V149.3h-9.6v32.06H911.63v-87H940c6.43,0,9.82,2.62,9.82,9.27v32.06c0,4.26-2,6.22-5.24,7.2v.33c3.16.33,5.24,2.29,5.24,6.54Zm-14.29-44.82V107.2h-9.6v29.34Z"/><path class="cls-3" d="M994.4,181.36H980.11V149.3H970.4v32.06H956.12V103.6c0-6.65,3.49-9.27,9.92-9.27h18.54c6.43,0,9.82,2.62,9.82,9.27Zm-14.29-44.82V107.2H970.4v29.34Zm7.09-56.71-9.05,9h-6.76l6.32-9Z"/><path class="cls-3" d="M1038.89,140.14c0,6.65-3.38,9.16-9.82,9.16H1015v32.06h-14.28v-87h28.35c6.44,0,9.82,2.62,9.82,9.27Zm-14.29-3.71V107.2H1015v29.23Z"/><path class="cls-3" d="M1059.06,181.36h-14.29v-87h14.29Z"/><path class="cls-3" d="M1103.44,172.42c0,6-3.38,8.94-9.59,8.94h-28.58v-87h28.58c6,0,9.59,2.4,9.59,8.94Zm-14.28-3.93V107.2h-9.6v61.29Z"/><path class="cls-3" d="M1147.83,172.42c0,6.21-3.06,8.94-9.49,8.94h-19.09c-6.1,0-9.59-2.51-9.59-8.94V103.27c0-6,3.16-8.94,9.59-8.94h19.09c6.21,0,9.49,2.51,9.49,8.94Zm-14.29-3.93V107.2h-9.6v61.29Z"/><path class="cls-3" d="M391.83,303.42c0,6.21-3.06,8.94-9.49,8.94H363.25c-6.1,0-9.59-2.51-9.59-8.94V234.27c0-6,3.16-8.94,9.59-8.94h19.09c6.21,0,9.49,2.51,9.49,8.94Zm-14.29-3.93V238.2h-9.6v61.29Z"/><path class="cls-3" d="M1205.84,181.36h-30.76v-87h30.76V107.2h-16.47v24.86h15.38v12.66h-15.38v23.77h16.47Z"/><path class="cls-3" d="M114.82,303.28c0,6-3.38,8.94-9.59,8.94H76.65v-87h28.58c6,0,9.59,2.4,9.59,8.94Zm-14.28-3.93V238.06h-9.6v61.29Z"/><path class="cls-3" d="M135.32,312.22H121v-87h14.28Z"/><path class="cls-3" d="M179.92,312.22H165.64V238.06h-9.71v74.16H141.65v-87h28.46c6.43,0,9.81,2.62,9.81,9.27Z"/><path class="cls-3" d="M224.52,312.22H210.24V280.16h-9.71v32.06H186.25V234.46c0-6.65,3.49-9.27,9.92-9.27h18.54c6.43,0,9.81,2.62,9.81,9.27Zm-7.85-92.37H209.8l-4.8-4.69-4.69,4.69h-6.76l9-9.16h4.91Zm-6.43,47.55V238.06h-9.71V267.4Z"/><path class="cls-3" d="M290.06,312.22H275.78V238.06h-8.07v74.16H253.42V238.06h-8.29v74.16H230.85v-87h49.29c6.43,0,9.92,2.62,9.92,9.27Z"/><path class="cls-3" d="M310.67,312.22H296.39v-87h14.28Z"/><path class="cls-3" d="M347.75,312.22H326.59c-6.43,0-9.59-2.4-9.59-8.94V234.13c0-6.54,3.16-8.94,9.59-8.94h21.16v12.87H331.28v61.29h16.47Z"/><path class="cls-2" d="M456.47,271c0,6.65-3.38,9.16-9.82,9.16H432.59v32.06H418.3v-87h28.35c6.44,0,9.82,2.62,9.82,9.27Zm-14.29-3.71V238.06h-9.59v29.23Z"/><path class="cls-2" d="M500.63,312.22H486.35V280.16h-9.71v32.06H462.35V234.46c0-6.65,3.49-9.27,9.93-9.27h18.54c6.43,0,9.81,2.62,9.81,9.27ZM486.35,267.4V238.06h-9.71V267.4Z"/><path class="cls-2" d="M545.12,312.22H530.84V280.16h-9.6v32.06H507v-87h28.35c6.43,0,9.81,2.62,9.81,9.27v32.06c0,4.26-2,6.22-5.23,7.2v.33c3.16.33,5.23,2.29,5.23,6.54ZM530.84,267.4V238.06h-9.6V267.4Z"/><path class="cls-2" d="M589.73,312.22H575.44V280.16h-9.71v32.06H551.45V234.46c0-6.65,3.49-9.27,9.92-9.27h18.54c6.43,0,9.82,2.62,9.82,9.27ZM575.44,267.4V238.06h-9.71V267.4Z"/><path class="cls-2" d="M647.74,312.22H626.58c-6.43,0-9.6-2.4-9.6-8.94V234.13c0-6.54,3.17-8.94,9.6-8.94h21.16v12.87H631.27v61.29h16.47Z"/><path class="cls-2" d="M690.92,303.28c0,6.21-3,8.94-9.49,8.94H662.35c-6.11,0-9.6-2.51-9.6-8.94V234.13c0-6,3.16-8.94,9.6-8.94h19.08c6.22,0,9.49,2.51,9.49,8.94Zm-14.29-3.93V238.06H667v61.29Z"/><path class="cls-2" d="M735.52,312.22H721.23V238.06h-9.7v74.16H697.24v-87H725.7c6.44,0,9.82,2.62,9.82,9.27Z"/><path class="cls-2" d="M772.6,312.22H741.84v-87H772.6v12.87H756.13v24.86H771.5v12.66H756.13v23.77H772.6Z"/><path class="cls-2" d="M808.36,312.22H787.21c-6.44,0-9.6-2.4-9.6-8.94V234.13c0-6.54,3.16-8.94,9.6-8.94h21.15v12.87H791.9v61.29h16.46Z"/><path class="cls-2" d="M851.33,238.06H838.79v74.16H824.5V238.06H812.07V225.19h39.26Z"/><path class="cls-2" d="M894.62,312.22H880.33V280.16h-9.7v32.06H856.34V234.46c0-6.65,3.49-9.27,9.93-9.27H884.8c6.44,0,9.82,2.62,9.82,9.27ZM880.33,267.4V238.06h-9.7V267.4Z"/><path class="cls-2" d="M939.11,312.22H924.83V280.16h-9.6v32.06H900.94v-87H929.3c6.43,0,9.81,2.62,9.81,9.27v32.06c0,4.26-2,6.22-5.23,7.2v.33c3.16.33,5.23,2.29,5.23,6.54ZM924.83,267.4V238.06h-9.6V267.4Z"/><path class="cls-2" d="M1004.32,238.06H991.78v74.16H977.49V238.06H965.06V225.19h39.26Z"/><path class="cls-2" d="M1047.5,303.28c0,6.21-3,8.94-9.48,8.94h-19.09c-6.11,0-9.6-2.51-9.6-8.94V234.13c0-6,3.17-8.94,9.6-8.94H1038c6.21,0,9.48,2.51,9.48,8.94Zm-14.28-3.93V238.06h-9.6v61.29Z"/><path class="cls-2" d="M1091.89,303.28c0,6-3.38,8.94-9.6,8.94h-28.57v-87h28.57c6,0,9.6,2.4,9.6,8.94Zm-14.29-3.93V238.06H1068v61.29Z"/><path class="cls-2" d="M1136.27,303.28c0,6.21-3.06,8.94-9.49,8.94H1107.7c-6.11,0-9.6-2.51-9.6-8.94V234.13c0-6,3.16-8.94,9.6-8.94h19.08c6.22,0,9.49,2.51,9.49,8.94ZM1122,299.35V238.06h-9.6v61.29Z"/><path class="cls-2" d="M1178.47,303.28c0,6.54-3.38,8.94-9.71,8.94h-26.17V299.35h21.59V275.58h-12.43c-6.65,0-9.16-3.39-9.16-9.82v-31.3c0-6.65,3.38-9.27,9.81-9.27h24v12.87h-19.52v24.86h12.43c6.65,0,9.16,3.49,9.16,9.93Z"/><path class="cls-2" d="M114.93,434.13c0,6.22-3.05,8.95-9.49,8.95H86.36c-6.11,0-9.6-2.51-9.6-8.95V365c0-6,3.17-8.94,9.6-8.94h19.08c6.22,0,9.49,2.51,9.49,8.94Zm-14.28-3.92V368.92h-9.6v61.29Z"/><path class="cls-2" d="M157.13,434.13c0,6.55-3.38,8.95-9.7,8.95H121.25V430.21h21.6V406.44H130.41c-6.65,0-9.16-3.39-9.16-9.82v-31.3c0-6.65,3.38-9.27,9.82-9.27h24v12.87H135.54v24.86H148c6.65,0,9.16,3.49,9.16,9.93Z"/><path class="cls-3" d="M222.67,443.08H208.38V411h-9.7v32.06H184.39V365.32c0-6.65,3.49-9.27,9.93-9.27h18.53c6.44,0,9.82,2.62,9.82,9.27Zm-14.29-44.82V368.92h-9.7v29.34Z"/><path class="cls-3" d="M288.21,443.08H273.92V368.92h-8.07v74.16H251.57V368.92h-8.29v74.16H229v-87h49.3c6.43,0,9.92,2.62,9.92,9.27Z"/><path class="cls-3" d="M332.81,443.08H318.52V411h-9.7v32.06H294.53V365.32c0-6.65,3.49-9.27,9.92-9.27H323c6.44,0,9.82,2.62,9.82,9.27Zm-14.29-44.82V368.92h-9.7v29.34Z"/><path class="cls-3" d="M377.41,443.08H363.12V368.92h-9.7v74.16H339.13v-87h28.46c6.44,0,9.82,2.62,9.82,9.27Z"/><path class="cls-3" d="M421.68,368.92H409.14v74.16H394.86V368.92H382.42V356.05h39.26Z"/><path class="cls-3" d="M457.45,443.08H426.7v-87h30.75v12.87H441v24.86h15.38v12.66H441v23.77h16.47Z"/><path class="cls-3" d="M498.34,434.13c0,6.55-3.38,8.95-9.7,8.95H462.46V430.21h21.6V406.44H471.63c-6.66,0-9.17-3.39-9.17-9.82v-31.3c0-6.65,3.39-9.27,9.82-9.27h24v12.87H476.75v24.86h12.43c6.66,0,9.16,3.49,9.16,9.93Z"/><path class="cls-3" d="M563.66,434.13c0,6-3.38,8.95-9.59,8.95H525.49v-87h28.58c6,0,9.59,2.4,9.59,8.94Zm-14.28-3.92V368.92h-9.6v61.29Z"/><path class="cls-3" d="M600.63,443.08H569.87v-87h30.76v12.87H584.16v24.86h15.38v12.66H584.16v23.77h16.47Z"/><path class="cls-3" d="M657.33,443.08H626.58v-87h30.75v12.87H640.86v24.86h15.38v12.66H640.86v23.77h16.47Z"/><path class="cls-3" d="M698.22,434.13c0,6.55-3.38,8.95-9.7,8.95H662.34V430.21h21.6V406.44H671.5c-6.65,0-9.16-3.39-9.16-9.82v-31.3c0-6.65,3.39-9.27,9.82-9.27h24v12.87H676.63v24.86h12.43c6.66,0,9.16,3.49,9.16,9.93Z"/><path class="cls-3" d="M742.72,401.85c0,6.66-3.39,9.17-9.82,9.17H718.83v32.06H704.55v-87H732.9c6.43,0,9.82,2.62,9.82,9.27Zm-14.29-3.7V368.92h-9.6v29.23Z"/><path class="cls-3" d="M786.77,434.13c0,6.22-3,8.95-9.49,8.95H758.2c-6.11,0-9.6-2.51-9.6-8.95V365c0-6,3.16-8.94,9.6-8.94h19.08c6.22,0,9.49,2.51,9.49,8.94Zm-14.29-3.92V368.92h-9.59v61.29Z"/><path class="cls-3" d="M831.26,443.08H817V411h-9.59v32.06H793.09v-87h28.36c6.43,0,9.81,2.62,9.81,9.27v32.06c0,4.26-2,6.22-5.23,7.2v.33c3.16.33,5.23,2.29,5.23,6.54ZM817,398.26V368.92h-9.59v29.34Z"/><path class="cls-3" d="M875.53,368.92H863v74.16H848.71V368.92H836.27V356.05h39.26Z"/><path class="cls-3" d="M911.3,443.08H880.55v-87H911.3v12.87H894.83v24.86h15.38v12.66H894.83v23.77H911.3Z"/><path class="cls-3" d="M952.19,434.13c0,6.55-3.38,8.95-9.7,8.95H916.32V430.21h21.59V406.44H925.48c-6.66,0-9.16-3.39-9.16-9.82v-31.3c0-6.65,3.38-9.27,9.81-9.27h24v12.87H930.6v24.86H943c6.66,0,9.16,3.49,9.16,9.93Z"/><path class="cls-3" d="M974.11,393.35l-2.51,29h-9.16l-2.61-29v-37.3h14.28Zm0,49.73H959.83v-15.6h14.28Z"/><path class="cls-2" d="M1085.63,29.45l-3.85-5.38-3.15,5.38h-6.36l6.26-9.84-6.5-9h6.5l3.82,5.31,3.15-5.31h6.35l-6.39,9.6,6.67,9.27Z"/><path class="cls-2" d="M1114.35,29.45l-3.86-5.38-3.14,5.38H1101l6.26-9.84-6.5-9h6.5l3.82,5.31,3.14-5.31h6.36l-6.39,9.6,6.66,9.27Z"/><path class="cls-2" d="M1143.07,29.45l-3.86-5.38-3.14,5.38h-6.36l6.26-9.84-6.5-9h6.5l3.82,5.31,3.14-5.31h6.36l-6.39,9.6,6.66,9.27Z"/><path class="cls-2" d="M1171.79,29.45l-3.86-5.38-3.14,5.38h-6.36l6.25-9.84-6.49-9h6.49l3.83,5.31,3.14-5.31H1178l-6.39,9.6,6.66,9.27Z"/><path class="cls-2" d="M1200.51,29.45l-3.86-5.38-3.15,5.38h-6.35l6.25-9.84-6.49-9h6.49l3.83,5.31,3.14-5.31h6.36l-6.39,9.6,6.66,9.27Z"/><path class="cls-2" d="M1085.63,57.05l-3.85-5.37-3.15,5.37h-6.36l6.26-9.84-6.5-9h6.5l3.82,5.31,3.15-5.31h6.35l-6.39,9.61,6.67,9.26Z"/><path class="cls-2" d="M1114.35,57.05l-3.86-5.37-3.14,5.37H1101l6.26-9.84-6.5-9h6.5l3.82,5.31,3.14-5.31h6.36l-6.39,9.61,6.66,9.26Z"/><path class="cls-2" d="M1143.07,57.05l-3.86-5.37-3.14,5.37h-6.36l6.26-9.84-6.5-9h6.5l3.82,5.31,3.14-5.31h6.36l-6.39,9.61,6.66,9.26Z"/><path class="cls-2" d="M1171.79,57.05l-3.86-5.37-3.14,5.37h-6.36l6.25-9.84-6.49-9h6.49l3.83,5.31,3.14-5.31H1178l-6.39,9.61,6.66,9.26Z"/><path class="cls-2" d="M1200.51,57.05l-3.86-5.37-3.15,5.37h-6.35l6.25-9.84-6.49-9h6.49l3.83,5.31,3.14-5.31h6.36l-6.39,9.61,6.66,9.26Z"/><path class="cls-2" d="M12.29,85a54.66,54.66,0,0,1,6.85,6q3.16,3.19,6,6.65t5.36,7.2a53.9,53.9,0,0,1,4.54,7.87,53.21,53.21,0,0,1-6.85-6c-2.11-2.13-4.13-4.35-6-6.66s-3.68-4.71-5.36-7.2A55.38,55.38,0,0,1,12.29,85Z"/><path class="cls-2" d="M12.06,107.88a53.86,53.86,0,0,1,6.84,6c2.11,2.13,4.13,4.34,6,6.65s3.69,4.71,5.37,7.19a54.49,54.49,0,0,1,4.53,7.88,54.59,54.59,0,0,1-6.85-6c-2.11-2.14-4.12-4.35-6-6.66s-3.68-4.71-5.36-7.2A54.43,54.43,0,0,1,12.06,107.88Z"/><path class="cls-2" d="M11.82,130.73a55.48,55.48,0,0,1,6.85,6q3.16,3.19,6,6.66c1.9,2.3,3.68,4.71,5.36,7.19a54,54,0,0,1,4.54,7.88,53.28,53.28,0,0,1-6.85-6c-2.11-2.13-4.13-4.34-6-6.66s-3.68-4.71-5.36-7.19A54.94,54.94,0,0,1,11.82,130.73Z"/><path class="cls-2" d="M11.59,153.59a54.66,54.66,0,0,1,6.84,6c2.11,2.13,4.13,4.35,6,6.66s3.69,4.7,5.37,7.19a54,54,0,0,1,4.53,7.88,54.66,54.66,0,0,1-6.85-6c-2.11-2.13-4.12-4.34-6-6.66s-3.68-4.71-5.36-7.19A54.54,54.54,0,0,1,11.59,153.59Z"/><path class="cls-2" d="M11.35,176.45a54.66,54.66,0,0,1,6.85,6q3.16,3.19,6,6.65t5.36,7.2a53.9,53.9,0,0,1,4.54,7.87,53.21,53.21,0,0,1-6.85-6c-2.11-2.13-4.13-4.34-6-6.66s-3.68-4.71-5.36-7.2A54.43,54.43,0,0,1,11.35,176.45Z"/><path class="cls-2" d="M11.12,199.31a54.56,54.56,0,0,1,6.84,6c2.11,2.13,4.13,4.34,6,6.65s3.69,4.71,5.37,7.2A53.85,53.85,0,0,1,33.88,227,54.59,54.59,0,0,1,27,221c-2.11-2.14-4.12-4.35-6-6.66s-3.68-4.71-5.36-7.2A54.43,54.43,0,0,1,11.12,199.31Z"/><path class="cls-2" d="M10.88,222.16a54.66,54.66,0,0,1,6.84,6q3.18,3.2,6,6.66c1.9,2.3,3.68,4.71,5.36,7.19a54,54,0,0,1,4.54,7.88,53.28,53.28,0,0,1-6.85-6c-2.11-2.13-4.13-4.34-6-6.65s-3.68-4.72-5.36-7.2A54,54,0,0,1,10.88,222.16Z"/><path class="cls-2" d="M10.65,245a55.39,55.39,0,0,1,6.84,6c2.11,2.13,4.13,4.35,6,6.66s3.68,4.7,5.37,7.19a54,54,0,0,1,4.53,7.88,54.66,54.66,0,0,1-6.85-6c-2.11-2.13-4.12-4.34-6-6.66s-3.68-4.71-5.37-7.19A54.89,54.89,0,0,1,10.65,245Z"/><path class="cls-2" d="M10.41,267.88a53.86,53.86,0,0,1,6.84,6q3.18,3.19,6,6.65t5.36,7.2a54.43,54.43,0,0,1,4.54,7.87,53.21,53.21,0,0,1-6.85-6c-2.11-2.13-4.13-4.34-6-6.66s-3.68-4.71-5.36-7.2A53.9,53.9,0,0,1,10.41,267.88Z"/><path class="cls-2" d="M10.18,290.74a54.56,54.56,0,0,1,6.84,6c2.11,2.13,4.13,4.34,6,6.65s3.68,4.71,5.37,7.2a53.85,53.85,0,0,1,4.53,7.87,54.59,54.59,0,0,1-6.85-6c-2.11-2.14-4.12-4.35-6-6.66s-3.69-4.71-5.37-7.2A55.32,55.32,0,0,1,10.18,290.74Z"/><path class="cls-2" d="M9.94,313.6a53.79,53.79,0,0,1,6.84,6q3.18,3.19,6,6.66c1.9,2.3,3.68,4.71,5.36,7.19a54,54,0,0,1,4.54,7.88,53.28,53.28,0,0,1-6.85-6c-2.11-2.13-4.13-4.34-6-6.65s-3.68-4.71-5.36-7.2A54.43,54.43,0,0,1,9.94,313.6Z"/><path class="cls-2" d="M9.71,336.45a55.39,55.39,0,0,1,6.84,6c2.11,2.13,4.13,4.35,6,6.66s3.68,4.71,5.37,7.19a54,54,0,0,1,4.53,7.88,54.66,54.66,0,0,1-6.85-6c-2.11-2.13-4.12-4.34-6-6.66s-3.69-4.71-5.37-7.19A54.89,54.89,0,0,1,9.71,336.45Z"/><path class="cls-2" d="M9.47,359.31a53.86,53.86,0,0,1,6.84,6q3.18,3.19,6,6.65t5.36,7.2A54,54,0,0,1,32.24,387a54.06,54.06,0,0,1-6.85-6c-2.11-2.13-4.13-4.34-6-6.66s-3.68-4.71-5.36-7.2A53.9,53.9,0,0,1,9.47,359.31Z"/><path class="cls-2" d="M9.24,382.17a54.56,54.56,0,0,1,6.84,6c2.11,2.13,4.13,4.34,6,6.65s3.68,4.71,5.37,7.2A53.85,53.85,0,0,1,32,409.87a54.59,54.59,0,0,1-6.85-6c-2.11-2.14-4.12-4.35-6-6.66s-3.69-4.71-5.37-7.2A54.38,54.38,0,0,1,9.24,382.17Z"/><path class="cls-2" d="M9,405a53.79,53.79,0,0,1,6.84,6c2.12,2.14,4.13,4.35,6,6.66s3.69,4.71,5.37,7.19a54,54,0,0,1,4.54,7.88,53.28,53.28,0,0,1-6.85-6c-2.11-2.13-4.13-4.34-6-6.65s-3.68-4.71-5.36-7.2A54.43,54.43,0,0,1,9,405Z"/></svg>