<svg id="Layer_1" data-name="Layer 1" xmlns="http://www.w3.org/2000/svg" xmlns:xlink="http://www.w3.org/1999/xlink" viewBox="0 0 624 454"><defs><style>.cls-1{fill:none;}.cls-2{clip-path:url(#clip-path);}.cls-3{fill:#f43737;}</style><clipPath id="clip-path"><rect class="cls-1" x="-42.17" y="15" width="665.98" height="432.23"/></clipPath></defs><title>Assets para layout do front</title><g class="cls-2"><polygon class="cls-3" points="192.59 37.44 627.29 469.83 627.29 463.19 199.26 37.44 192.59 37.44"/><path class="cls-3" d="M628.84,473.53l-440-437.62h11l.45.45,428.49,426.2ZM196.31,39,625.75,466.13v-2.3L198.62,39Z"/><polygon class="cls-3" points="570.71 560.19 151.91 143.62 148.58 146.94 570.71 566.83 570.71 560.19"/><path class="cls-3" d="M572.26,570.53,146.39,146.94l5.52-5.49L572.26,559.56ZM150.76,146.94,569.17,563.12v-2.29l-417.26-415Z"/><polygon class="cls-3" points="-266.12 -265.67 152.68 150.9 156.01 147.58 -266.12 -272.31 -266.12 -265.67"/><path class="cls-3" d="M-267.66-276,158.2,147.58l-5.52,5.49L-267.66-265ZM153.83,147.58-264.58-268.61v2.3l417.26,415Z"/></g></svg>