<svg id="Layer_1" data-name="Layer 1" xmlns="http://www.w3.org/2000/svg" xmlns:xlink="http://www.w3.org/1999/xlink" viewBox="0 0 130 262"><defs><style>.cls-1{fill:none;}.cls-2{fill:#fff;}.cls-3{clip-path:url(#clip-path);}</style><clipPath id="clip-path"><rect class="cls-1" x="-748.57" y="-86.81" width="448.57" height="387.34"/></clipPath></defs><title>Assets para layout do front</title><circle class="cls-2" cx="27.12" cy="243.54" r="8.04"/><circle class="cls-2" cx="27.12" cy="198.68" r="8.04"/><circle class="cls-2" cx="27.12" cy="153.81" r="8.04"/><circle class="cls-2" cx="27.12" cy="108.95" r="8.04"/><circle class="cls-2" cx="27.12" cy="64.08" r="8.04"/><circle class="cls-2" cx="27.12" cy="19.22" r="8.04"/><circle class="cls-2" cx="66.54" cy="243.54" r="8.04"/><circle class="cls-2" cx="66.54" cy="198.68" r="8.04"/><circle class="cls-2" cx="66.54" cy="153.81" r="8.04"/><circle class="cls-2" cx="66.54" cy="108.95" r="8.04"/><circle class="cls-2" cx="66.54" cy="64.08" r="8.04"/><circle class="cls-2" cx="66.54" cy="19.22" r="8.04"/><circle class="cls-2" cx="105.96" cy="243.54" r="8.04"/><circle class="cls-2" cx="105.96" cy="198.68" r="8.04"/><circle class="cls-2" cx="105.96" cy="153.81" r="8.04"/><circle class="cls-2" cx="105.96" cy="108.95" r="8.04"/><circle class="cls-2" cx="105.96" cy="64.08" r="8.04"/><circle class="cls-2" cx="105.96" cy="19.22" r="8.04"/><g class="cls-3"><path class="cls-2" d="M-937.39-198.11q13.32,3.47,26.46,7.62c27.46,8.78,54.26,19.88,79.32,34.28a340.66,340.66,0,0,1,69,52c20.49,20.28,39,42.84,53,68.18a274.75,274.75,0,0,1,18,39.37A412.11,412.11,0,0,1-679,44.69c7,27.87,12.36,56.14,22.71,82.78a208.41,208.41,0,0,0,19.41,38,217.88,217.88,0,0,0,26.78,33.22l7.64,7.47c2.61,2.44,5.4,4.68,8.06,7s5.38,4.72,8.15,6.94l8.62,6.34c5.61,4.45,11.82,8,17.82,11.8,3,2,6.19,3.52,9.34,5.2l9.49,5c25.84,12.15,53.71,19.62,82,23.57,28.38,3.73,57.11,4.26,85.74,3.48s57.3-2.92,86-4.6,57.38-3.06,86.14-2.35,57.53,3.36,85.67,9.47a316.76,316.76,0,0,1,80.83,29.68A312.6,312.6,0,0,1,1.74,330.81a360.15,360.15,0,0,1,32.81,28,405.63,405.63,0,0,1,54.34,66.82Q101.36,444.82,112,465v2.75q-11.21-21.25-24.3-41.41a403.74,403.74,0,0,0-54.28-66.43A360.55,360.55,0,0,0,.76,332.15a317.07,317.07,0,0,0-36.27-22.92,315.22,315.22,0,0,0-80.41-29.32c-28-6-56.67-8.61-85.3-9.21s-57.32.79-86,2.54-57.27,3.92-86,4.8-57.59.38-86.18-3.31c-28.52-3.93-56.73-11.38-82.92-23.66l-9.59-5a107.66,107.66,0,0,1-9.47-5.25c-6.11-3.88-12.43-7.43-18.09-11.9l-8.73-6.4c-2.84-2.25-5.52-4.68-8.27-7s-5.52-4.64-8.17-7.1l-7.76-7.55a221.5,221.5,0,0,1-27.27-33.65,211.8,211.8,0,0,1-19.79-38.53c-10.56-27-16-55.41-23-83.14a406,406,0,0,0-12.46-41,272.34,272.34,0,0,0-17.88-38.79c-13.86-25-32.2-47.18-52.5-67.2a335.83,335.83,0,0,0-68.34-51.19c-24.78-14.17-51.33-25.11-78.56-33.73q-12.49-3.94-25.16-7.22Z"/><path class="cls-2" d="M-937.39-228.08q16.65,4.16,33,9.32c27.46,8.79,54.28,19.9,79.32,34.3a339.83,339.83,0,0,1,69,51.94c20.49,20.3,39,42.86,53,68.19a275.47,275.47,0,0,1,18,39.38,411.63,411.63,0,0,1,12.49,41.37c7,27.89,12.36,56.14,22.73,82.78a209.29,209.29,0,0,0,19.39,38,218.11,218.11,0,0,0,26.78,33.22l7.66,7.47c2.61,2.44,5.38,4.68,8.06,7.06s5.36,4.7,8.15,6.92l8.6,6.34c5.61,4.45,11.84,7.95,17.84,11.8a104.92,104.92,0,0,0,9.34,5.2l9.47,5c25.84,12.16,53.71,19.63,82,23.6,28.36,3.71,57.09,4.24,85.74,3.48s57.28-2.94,85.95-4.62,57.4-3.06,86.16-2.35,57.51,3.36,85.65,9.47a317,317,0,0,1,80.83,29.68A316.63,316.63,0,0,1,8.33,302.54a352,352,0,0,1,32.81,28,402.13,402.13,0,0,1,54.34,66.8q8.72,13.41,16.56,27.37v2.67q-8.37-15-17.71-29.28a401.39,401.39,0,0,0-54.28-66.43,354.91,354.91,0,0,0-32.7-27.81A318.09,318.09,0,0,0-28.92,281a314.9,314.9,0,0,0-80.41-29.3c-28-6-56.65-8.61-85.3-9.24s-57.32.8-85.94,2.56-57.3,3.93-86,4.79-57.57.38-86.18-3.3c-28.52-3.92-56.73-11.39-82.9-23.65l-9.61-5a102.63,102.63,0,0,1-9.47-5.24c-6.09-3.89-12.4-7.41-18.09-11.9l-8.73-6.41c-2.84-2.24-5.5-4.68-8.27-7s-5.52-4.66-8.17-7.12l-7.76-7.56A219.83,219.83,0,0,1-633,139a211.65,211.65,0,0,1-19.81-38.54c-10.56-27-16-55.41-23-83.11a402,402,0,0,0-12.47-41A271.37,271.37,0,0,0-706.22-62.5c-13.88-24.93-32.2-47.18-52.52-67.21a335.06,335.06,0,0,0-68.32-51.17c-24.78-14.18-51.35-25.1-78.58-33.75-10.47-3.31-21.07-6.25-31.75-8.92Z"/><path class="cls-2" d="M-937.39-258c13.35,3.19,26.57,6.8,39.67,11,27.43,8.77,54.25,19.88,79.29,34.27a339.14,339.14,0,0,1,69,52c20.49,20.3,39,42.86,53,68.19a272.21,272.21,0,0,1,18,39.38,405.33,405.33,0,0,1,12.49,41.39c7,27.87,12.38,56.14,22.73,82.76a209,209,0,0,0,19.39,38A218.52,218.52,0,0,0-597,142.12l7.66,7.49c2.61,2.44,5.38,4.68,8.06,7s5.36,4.7,8.15,6.93l8.6,6.36c5.61,4.43,11.84,7.93,17.84,11.77a98.14,98.14,0,0,0,9.34,5.23l9.47,4.95c25.84,12.18,53.73,19.63,82,23.59,28.38,3.72,57.09,4.24,85.74,3.49s57.3-2.94,85.95-4.6,57.4-3.06,86.16-2.35,57.51,3.34,85.65,9.45a316.94,316.94,0,0,1,80.83,29.67A322.41,322.41,0,0,1,15,274.26a363.2,363.2,0,0,1,32.8,28,405.16,405.16,0,0,1,54.32,66.81c3.42,5.27,6.76,10.62,10,16v2.59c-3.59-6-7.28-12-11.12-17.84a402.22,402.22,0,0,0-54.28-66.43,354.91,354.91,0,0,0-32.7-27.81,316.18,316.18,0,0,0-36.27-22.9,314.2,314.2,0,0,0-80.41-29.32c-28-6-56.65-8.61-85.27-9.22s-57.34.78-86,2.54-57.28,3.93-86,4.81-57.6.38-86.21-3.32c-28.52-3.92-56.71-11.39-82.9-23.65l-9.61-5a107.75,107.75,0,0,1-9.47-5.26c-6.09-3.87-12.4-7.41-18.09-11.88L-575,166c-2.81-2.24-5.5-4.66-8.25-7s-5.54-4.66-8.19-7.11l-7.76-7.54a222.17,222.17,0,0,1-27.25-33.66,210.91,210.91,0,0,1-19.79-38.54c-10.56-27-16-55.39-23-83.11a406.43,406.43,0,0,0-12.49-41,267.64,267.64,0,0,0-17.86-38.81c-13.88-24.94-32.2-47.18-52.5-67.19a336.78,336.78,0,0,0-68.33-51.19c-24.79-14.16-51.34-25.1-78.59-33.75-12.63-4-25.43-7.43-38.34-10.53Z"/><path class="cls-2" d="M-937.39-287.75c15.57,3.55,31,7.64,46.26,12.47,27.45,8.77,54.25,19.87,79.31,34.27a340.34,340.34,0,0,1,69,52c20.49,20.28,39,42.84,53,68.17a274.27,274.27,0,0,1,18,39.38A403.58,403.58,0,0,1-659.27-40.1c7,27.87,12.38,56.14,22.73,82.77a208.72,208.72,0,0,0,19.41,38,216.87,216.87,0,0,0,26.78,33.23l7.64,7.47c2.61,2.43,5.4,4.68,8.06,7s5.38,4.72,8.15,6.93l8.62,6.36c5.59,4.45,11.82,8,17.82,11.79a106.74,106.74,0,0,0,9.34,5.21l9.49,5c25.84,12.17,53.71,19.63,82,23.59,28.38,3.74,57.11,4.26,85.74,3.49s57.3-2.92,86-4.6,57.38-3.06,86.14-2.35,57.53,3.36,85.67,9.47A316.32,316.32,0,0,1-14.9,222.88,313.45,313.45,0,0,1,21.54,246a363,363,0,0,1,32.8,28,405.88,405.88,0,0,1,54.34,66.81c1.14,1.74,2.25,3.48,3.36,5.25v2.56c-1.49-2.38-3-4.73-4.51-7.06a403.58,403.58,0,0,0-54.28-66.42,354.94,354.94,0,0,0-32.72-27.79,314.23,314.23,0,0,0-36.25-22.92,315.5,315.5,0,0,0-80.41-29.32c-28-6-56.66-8.61-85.29-9.22s-57.32.8-86,2.54-57.28,3.93-86,4.81-57.6.38-86.18-3.32c-28.53-3.92-56.74-11.4-82.93-23.65l-9.61-5a107.59,107.59,0,0,1-9.45-5.25c-6.11-3.88-12.42-7.43-18.09-11.9l-8.73-6.42c-2.83-2.22-5.52-4.66-8.27-7s-5.52-4.64-8.17-7.11l-7.76-7.54a220.12,220.12,0,0,1-27.27-33.66,211.39,211.39,0,0,1-19.79-38.52c-10.55-27-16-55.41-23-83.13a407.9,407.9,0,0,0-12.47-41A270.89,270.89,0,0,0-693-119c-13.86-24.94-32.2-47.16-52.5-67.19a336.41,336.41,0,0,0-68.33-51.19c-24.79-14.17-51.34-25.1-78.56-33.73-14.8-4.66-29.81-8.62-45-12Z"/><path class="cls-2" d="M-937.39-317.51c17.8,3.9,35.45,8.46,52.85,14,27.45,8.79,54.27,19.89,79.31,34.29a340.25,340.25,0,0,1,69,51.95c20.49,20.27,39,42.84,53,68.19a275,275,0,0,1,18,39.35,411.75,411.75,0,0,1,12.49,41.39c7,27.9,12.36,56.15,22.73,82.78a208.64,208.64,0,0,0,19.39,38A218.26,218.26,0,0,0-583.75,85.6l7.66,7.47c2.6,2.43,5.37,4.68,8.06,7s5.35,4.72,8.14,7l8.6,6.34c5.61,4.45,11.84,8,17.85,11.79a102.39,102.39,0,0,0,9.33,5.21l9.47,5c25.84,12.15,53.71,19.63,82,23.59,28.36,3.72,57.09,4.24,85.74,3.47s57.28-2.92,85.95-4.6,57.41-3.07,86.16-2.35,57.51,3.36,85.65,9.46A317.34,317.34,0,0,1-8.29,194.61a316.26,316.26,0,0,1,36.42,23.13,357.32,357.32,0,0,1,32.8,28A400.74,400.74,0,0,1,112,307.7v2.5a402.06,402.06,0,0,0-52.2-63.33,361,361,0,0,0-32.7-27.79A315,315,0,0,0-9.13,196.16a316,316,0,0,0-80.41-29.32c-28-6-56.64-8.58-85.29-9.21s-57.32.8-85.95,2.56-57.3,3.93-86,4.79-57.58.37-86.18-3.3c-28.53-3.92-56.74-11.4-82.91-23.65l-9.61-5a100.41,100.41,0,0,1-9.47-5.25c-6.08-3.88-12.4-7.41-18.09-11.9l-8.73-6.4c-2.83-2.24-5.5-4.68-8.27-7s-5.52-4.64-8.16-7.09L-586,87.8a220.63,220.63,0,0,1-27.24-33.64,211.39,211.39,0,0,1-19.82-38.54c-10.55-27-16-55.41-23-83.11a403.32,403.32,0,0,0-12.47-41,271.62,271.62,0,0,0-17.86-38.78c-13.87-24.94-32.2-47.19-52.51-67.21a334.61,334.61,0,0,0-68.32-51.17c-24.79-14.19-51.36-25.1-78.58-33.75-16.94-5.33-34.17-9.76-51.55-13.54Z"/><path class="cls-2" d="M-937.39-347.19a606.15,606.15,0,0,1,59.46,15.39c27.43,8.77,54.25,19.87,79.29,34.27a338.84,338.84,0,0,1,69,51.95c20.48,20.29,39,42.86,53,68.19a270.55,270.55,0,0,1,18,39.37,404.73,404.73,0,0,1,12.49,41.37c7,27.9,12.38,56.17,22.73,82.78a208.81,208.81,0,0,0,19.39,38,219.57,219.57,0,0,0,26.79,33.21l7.66,7.47c2.6,2.43,5.37,4.7,8.06,7s5.35,4.7,8.14,6.93l8.61,6.35c5.6,4.43,11.83,7.94,17.84,11.78,3,2,6.19,3.53,9.34,5.23l9.46,5c25.84,12.17,53.73,19.62,82,23.59,28.37,3.72,57.08,4.24,85.73,3.48s57.28-2.93,86-4.59,57.41-3.09,86.16-2.35,57.51,3.33,85.66,9.44A317.41,317.41,0,0,1-1.7,166.34a321,321,0,0,1,36.44,23.13,360,360,0,0,1,32.8,28A398.74,398.74,0,0,1,112,269.9v2.45a397,397,0,0,0-45.61-53.73,358,358,0,0,0-32.7-27.81,313.11,313.11,0,0,0-36.27-22.9,315,315,0,0,0-80.4-29.32c-28-6-56.65-8.6-85.28-9.21s-57.34.78-86,2.54-57.28,3.92-86,4.8-57.6.36-86.2-3.31c-28.53-3.93-56.71-11.4-82.91-23.66l-9.61-5a105.31,105.31,0,0,1-9.47-5.27c-6.08-3.86-12.4-7.41-18.09-11.88l-8.73-6.42c-2.83-2.25-5.5-4.66-8.25-7s-5.54-4.66-8.18-7.12l-7.77-7.55a220.93,220.93,0,0,1-27.24-33.65,211.21,211.21,0,0,1-19.8-38.53c-10.55-27-16-55.39-23-83.12a407.21,407.21,0,0,0-12.49-41,267.52,267.52,0,0,0-17.86-38.8c-13.87-24.94-32.2-47.19-52.51-67.21a336.07,336.07,0,0,0-68.32-51.17c-24.79-14.17-51.34-25.1-78.58-33.75a599.76,599.76,0,0,0-58.14-14.92Z"/><path class="cls-2" d="M-937.39-376.85a639.37,639.37,0,0,1,66,16.77c27.45,8.78,54.25,19.88,79.32,34.28a339.79,339.79,0,0,1,69,51.95c20.48,20.29,39,42.85,53,68.19a272.58,272.58,0,0,1,18,39.37,401.84,401.84,0,0,1,12.49,41.39c7,27.87,12.38,56.15,22.73,82.78a208.77,208.77,0,0,0,19.42,38,216.08,216.08,0,0,0,26.78,33.22l7.64,7.48c2.6,2.43,5.37,4.68,8.06,7s5.35,4.72,8.14,6.92l8.63,6.36c5.58,4.43,11.81,8,17.82,11.8,3,2,6.19,3.52,9.34,5.2l9.48,5c25.84,12.17,53.71,19.62,82,23.59,28.37,3.71,57.11,4.26,85.73,3.48s57.3-2.91,86-4.59,57.39-3.07,86.14-2.35,57.51,3.33,85.68,9.44a317.22,317.22,0,0,1,80.8,29.7,312.13,312.13,0,0,1,36.44,23.13,358.44,358.44,0,0,1,32.8,28A391,391,0,0,1,112,232.64V235a390.14,390.14,0,0,0-39-44.69,358.09,358.09,0,0,0-32.72-27.79A311.92,311.92,0,0,0,4.05,139.64a315.53,315.53,0,0,0-80.38-29.32c-28-6-56.67-8.6-85.3-9.21s-57.32.77-86,2.54-57.28,3.92-86,4.8-57.59.38-86.18-3.31c-28.53-3.93-56.73-11.4-82.93-23.66l-9.61-5c-3.17-1.7-6.44-3.23-9.47-5.25-6.08-3.88-12.4-7.43-18.07-11.9l-8.73-6.42c-2.83-2.23-5.52-4.66-8.27-7s-5.54-4.64-8.16-7.12l-7.79-7.53A221.09,221.09,0,0,1-600.06-2.39a211,211,0,0,1-19.8-38.51c-10.55-27-16-55.41-23-83.14a404.54,404.54,0,0,0-12.47-41,271.39,271.39,0,0,0-17.88-38.81c-13.87-24.93-32.2-47.16-52.49-67.18a336.11,336.11,0,0,0-68.34-51.19c-24.79-14.17-51.34-25.11-78.56-33.73a632.89,632.89,0,0,0-64.75-16.33Z"/><path class="cls-2" d="M-937.39-404.47h9.67a630.3,630.3,0,0,1,63,16.12c27.45,8.78,54.28,19.9,79.32,34.28a340.94,340.94,0,0,1,69,52c20.48,20.28,39,42.84,53,68.18a274.67,274.67,0,0,1,18,39.37,406.85,406.85,0,0,1,12.49,41.39c7,27.89,12.36,56.14,22.73,82.78a209,209,0,0,0,19.4,38A218.49,218.49,0,0,0-564,.8l7.66,7.47c2.6,2.44,5.37,4.68,8,7s5.37,4.72,8.16,6.94l8.61,6.34c5.6,4.45,11.83,8,17.84,11.8,3,2,6.19,3.52,9.32,5.2l9.48,5c25.84,12.15,53.71,19.62,82,23.57,28.35,3.73,57.09,4.26,85.74,3.48s57.27-2.92,85.94-4.6S-183.75,70-155,70.67-97.47,74-69.32,80.14A316.14,316.14,0,0,1,11.5,109.82,316.26,316.26,0,0,1,47.92,133a354.45,354.45,0,0,1,32.8,28A383.62,383.62,0,0,1,112,195.87v2.35a384.25,384.25,0,0,0-32.41-36.14,356.49,356.49,0,0,0-32.7-27.79,313.62,313.62,0,0,0-36.27-22.92,315.15,315.15,0,0,0-80.4-29.32c-28-6-56.65-8.61-85.3-9.21s-57.32.79-86,2.54-57.3,3.92-86,4.8-57.57.38-86.18-3.29c-28.52-4-56.73-11.4-82.91-23.66l-9.61-5A107.48,107.48,0,0,1-515.18,43c-6.09-3.88-12.41-7.43-18.1-11.9l-8.73-6.4c-2.83-2.25-5.5-4.68-8.27-7s-5.52-4.64-8.16-7.1L-566.21,3a222.65,222.65,0,0,1-27.26-33.65,211.8,211.8,0,0,1-19.79-38.53c-10.56-27-16-55.41-23-83.14a406.1,406.1,0,0,0-12.47-41,272.24,272.24,0,0,0-17.86-38.79c-13.87-25-32.22-47.18-52.51-67.2a334.61,334.61,0,0,0-68.32-51.17c-24.81-14.19-51.36-25.11-78.58-33.75a637.47,637.47,0,0,0-71.34-17.59Z"/></g></svg>