<svg id="Layer_1" data-name="Layer 1" xmlns="http://www.w3.org/2000/svg" xmlns:xlink="http://www.w3.org/1999/xlink" viewBox="0 0 504 386"><defs><style>.cls-1{fill:none;}.cls-2{clip-path:url(#clip-path);}.cls-3{fill:#fff;}</style><clipPath id="clip-path"><rect class="cls-1" x="-0.05" y="-594.08" width="742.05" height="979.78"/></clipPath></defs><title>Assets para layout do front</title><g class="cls-2"><path class="cls-3" d="M-72.76-130.76q4.31,16.54,9.47,32.87C-52.4-63.8-38.61-30.51-20.73.61A423.23,423.23,0,0,0,43.81,86.34C69,111.78,97,134.77,128.47,152.18a340.28,340.28,0,0,0,48.9,22.37,509.7,509.7,0,0,0,51.4,15.53c34.61,8.68,69.72,15.35,102.8,28.2a259.67,259.67,0,0,1,47.15,24.11A270.57,270.57,0,0,1,420,275.65l9.28,9.49c3,3.23,5.82,6.7,8.74,10s5.86,6.67,8.62,10.11L454.49,316c5.53,7,9.88,14.67,14.65,22.13,2.48,3.7,4.38,7.69,6.47,11.6l6.18,11.78c15.09,32.08,24.37,66.7,29.27,101.83,4.64,35.25,5.29,70.93,4.32,106.48s-3.62,71.16-5.7,106.77-3.81,71.26-2.92,107,4.17,71.44,11.75,106.4a376.1,376.1,0,0,0,65.58,145.6,451.35,451.35,0,0,0,34.77,40.74,503.41,503.41,0,0,0,83,67.48q23.8,15.48,48.92,28.75h3.41q-26.38-13.92-51.42-30.18a501.08,501.08,0,0,1-82.5-67.41,446.62,446.62,0,0,1-34.51-40.61,374.14,374.14,0,0,1-64.88-144.89c-7.45-34.8-10.68-70.38-11.44-105.93s1-71.19,3.15-106.77,4.88-71.13,6-106.81.47-71.53-4.11-107c-4.88-35.42-14.13-70.45-29.38-103L478.87,348a134.4,134.4,0,0,0-6.52-11.76c-4.82-7.59-9.23-15.43-14.78-22.47l-7.95-10.84c-2.79-3.52-5.81-6.86-8.71-10.27s-5.76-6.86-8.81-10.14l-9.38-9.65A274,274,0,0,0,380.94,239a261.59,261.59,0,0,0-47.86-24.58c-33.52-13.11-68.81-19.89-103.24-28.62a505.66,505.66,0,0,1-50.91-15.49,335.93,335.93,0,0,1-48.17-22.2c-31-17.21-58.59-40-83.46-65.19A417.31,417.31,0,0,1-16.27-1.94C-33.87-32.73-47.45-65.7-58.16-99.51q-4.89-15.51-9-31.25Z"/><path class="cls-3" d="M-110-130.76c3.44,13.79,7.27,27.5,11.58,41.05C-87.48-55.61-73.69-22.3-55.81,8.8A422,422,0,0,0,8.7,94.53C33.9,120,61.92,143,93.38,160.37a342,342,0,0,0,48.9,22.39,510,510,0,0,0,51.38,15.51c34.64,8.7,69.72,15.35,102.8,28.22a258.94,258.94,0,0,1,47.15,24.09,269.71,269.71,0,0,1,41.26,33.26l9.28,9.51c3,3.23,5.82,6.67,8.76,10s5.84,6.65,8.6,10.11l7.87,10.69c5.53,7,9.88,14.7,14.65,22.16a128.62,128.62,0,0,1,6.47,11.6l6.18,11.75c15.09,32.09,24.37,66.7,29.29,101.87,4.62,35.21,5.27,70.89,4.33,106.47s-3.65,71.13-5.73,106.74-3.81,71.29-2.92,107,4.17,71.42,11.75,106.37A376.1,376.1,0,0,0,549,1043.72a438.91,438.91,0,0,0,34.8,40.74,499.48,499.48,0,0,0,83,67.49q16.65,10.83,34,20.56h3.32c-12.39-6.93-24.53-14.23-36.37-22a498.6,498.6,0,0,1-82.49-67.4,440.86,440.86,0,0,1-34.54-40.61A373.62,373.62,0,0,1,485.8,897.6c-7.48-34.77-10.69-70.35-11.47-105.93s1-71.18,3.18-106.74,4.87-71.16,5.94-106.84.47-71.5-4.09-107c-4.87-35.43-14.15-70.46-29.37-103l-6.23-11.94a128.29,128.29,0,0,0-6.52-11.76c-4.82-7.55-9.2-15.4-14.78-22.46l-7.95-10.85c-2.79-3.52-5.81-6.83-8.68-10.27S400,294,397,290.69l-9.38-9.64a272.87,272.87,0,0,0-41.78-33.83A262.35,262.35,0,0,0,298,222.61C264.48,209.5,229.16,202.75,194.75,194a495.51,495.51,0,0,1-50.9-15.48,335.67,335.67,0,0,1-48.2-22.18c-31-17.23-58.59-40-83.46-65.22A415.47,415.47,0,0,1-51.36,6.27C-69-24.52-82.53-57.51-93.27-91.32c-4.12-13-7.77-26.17-11.08-39.44Z"/><path class="cls-3" d="M-147.09-130.76c4,16.58,8.44,33,13.6,49.27C-122.59-47.43-108.8-14.12-90.92,17a420.33,420.33,0,0,0,64.51,85.73c25.2,25.44,53.22,48.43,84.68,65.84a337.64,337.64,0,0,0,48.9,22.39,501.2,501.2,0,0,0,51.4,15.51c34.62,8.71,69.73,15.38,102.78,28.23a259.8,259.8,0,0,1,47.18,24.08A272.16,272.16,0,0,1,349.76,292l9.31,9.52c3,3.23,5.81,6.67,8.73,10s5.84,6.64,8.6,10.11l7.9,10.69c5.5,7,9.85,14.7,14.62,22.15a120.88,120.88,0,0,1,6.49,11.6l6.15,11.76c15.12,32.08,24.38,66.72,29.3,101.86,4.62,35.24,5.27,70.9,4.33,106.48s-3.65,71.16-5.71,106.73-3.8,71.29-2.92,107,4.15,71.42,11.73,106.38a393.55,393.55,0,0,0,36.86,100.37,399.42,399.42,0,0,0,28.72,45.25,450.3,450.3,0,0,0,34.8,40.74,502.37,502.37,0,0,0,83,67.46q9.81,6.38,19.88,12.38h3.21q-11.22-6.67-22.16-13.81a500,500,0,0,1-82.49-67.41,440.86,440.86,0,0,1-34.54-40.61,374.51,374.51,0,0,1-64.85-144.89C443.23,871,440,835.43,439.25,799.88s1-71.21,3.15-106.76,4.87-71.14,6-106.82.47-71.52-4.12-107c-4.87-35.42-14.15-70.43-29.37-103l-6.21-11.94a133.26,133.26,0,0,0-6.54-11.75c-4.8-7.56-9.2-15.41-14.75-22.47l-8-10.84c-2.79-3.5-5.79-6.83-8.68-10.25s-5.79-6.88-8.84-10.16l-9.35-9.65a277,277,0,0,0-41.81-33.83,262.2,262.2,0,0,0-47.86-24.58c-33.49-13.11-68.78-19.89-103.22-28.62a500.68,500.68,0,0,1-50.9-15.51,332.44,332.44,0,0,1-48.2-22.18c-31-17.23-58.59-40-83.43-65.19A417.44,417.44,0,0,1-86.47,14.45c-17.59-30.78-31.17-63.75-41.91-97.59-4.93-15.69-9.23-31.59-13.08-47.62Z"/><path class="cls-3" d="M-184.08-130.76c4.4,19.34,9.49,38.53,15.48,57.45,10.9,34.09,24.69,67.38,42.57,98.5A422.44,422.44,0,0,0-61.5,110.92c25.18,25.44,53.2,48.43,84.66,65.84a340.78,340.78,0,0,0,48.9,22.37,502.65,502.65,0,0,0,51.4,15.5c34.62,8.71,69.73,15.38,102.81,28.23A260,260,0,0,1,273.42,267a268.77,268.77,0,0,1,41.26,33.26l9.28,9.49c3,3.23,5.81,6.7,8.73,10s5.87,6.67,8.6,10.11l7.9,10.72c5.53,6.93,9.88,14.67,14.65,22.13a130.2,130.2,0,0,1,6.46,11.6l6.15,11.78c15.12,32.08,24.38,66.7,29.3,101.83,4.64,35.24,5.29,70.93,4.33,106.48s-3.62,71.16-5.71,106.77-3.8,71.26-2.92,107,4.17,71.44,11.76,106.4a376.36,376.36,0,0,0,65.58,145.6,449.74,449.74,0,0,0,34.77,40.74,504,504,0,0,0,83,67.48c2.16,1.41,4.32,2.79,6.51,4.17h3.18c-2.94-1.85-5.86-3.7-8.76-5.6A500.59,500.59,0,0,1,515,1099.5a439.47,439.47,0,0,1-34.51-40.63A373.33,373.33,0,0,1,415.58,914c-7.46-34.8-10.69-70.38-11.44-105.93s1-71.19,3.15-106.77,4.87-71.13,6-106.81.47-71.53-4.12-107C404.27,452,395,417,379.76,384.48l-6.2-11.94c-2.11-3.94-4-8-6.51-11.73-4.83-7.59-9.23-15.43-14.78-22.47l-8-10.84c-2.76-3.52-5.79-6.86-8.68-10.27s-5.76-6.86-8.84-10.14l-9.35-9.65a273.72,273.72,0,0,0-41.81-33.85A261.66,261.66,0,0,0,227.78,239c-33.52-13.12-68.82-19.89-103.25-28.62a505.48,505.48,0,0,1-50.9-15.49,336.78,336.78,0,0,1-48.2-22.2c-31-17.21-58.57-40-83.43-65.19a417.72,417.72,0,0,1-63.58-84.87c-17.59-30.79-31.17-63.76-41.88-97.57-5.79-18.37-10.72-37-15-55.83Z"/><path class="cls-3" d="M-221-130.76c4.85,22.11,10.5,44,17.33,65.63C-192.79-31-179,2.28-161.12,33.38A422.38,422.38,0,0,0-96.61,119.1c25.18,25.44,53.2,48.43,84.69,65.85A343.14,343.14,0,0,0,37,207.34a512.72,512.72,0,0,0,51.4,15.51c34.64,8.7,69.73,15.35,102.81,28.22a259.27,259.27,0,0,1,47.15,24.09,270.2,270.2,0,0,1,41.26,33.26l9.28,9.51c3,3.23,5.81,6.67,8.73,10s5.87,6.65,8.63,10.11l7.87,10.69c5.53,7,9.88,14.7,14.65,22.16a126.13,126.13,0,0,1,6.46,11.6l6.18,11.75c15.09,32.09,24.37,66.7,29.3,101.87,4.61,35.21,5.26,70.89,4.3,106.47s-3.62,71.13-5.71,106.74-3.8,71.29-2.92,107,4.17,71.42,11.76,106.37a375.67,375.67,0,0,0,65.58,145.6A441.43,441.43,0,0,0,478.47,1109a497.05,497.05,0,0,0,76.92,63.47h3.11a499.19,499.19,0,0,1-78.64-64.82,445.26,445.26,0,0,1-34.51-40.61,373.68,373.68,0,0,1-64.88-144.9C373,887.41,369.81,851.83,369,816.25s1-71.18,3.18-106.74,4.87-71.16,5.94-106.84.47-71.5-4.09-107c-4.88-35.43-14.16-70.46-29.38-103l-6.23-11.94A125.86,125.86,0,0,0,331.94,369c-4.83-7.56-9.21-15.4-14.78-22.46l-8-10.85c-2.79-3.52-5.82-6.83-8.71-10.27s-5.76-6.85-8.81-10.14l-9.38-9.64a274.4,274.4,0,0,0-41.79-33.83,262.27,262.27,0,0,0-47.85-24.61c-33.52-13.11-68.82-19.86-103.22-28.62a498.33,498.33,0,0,1-50.93-15.48A338.1,338.1,0,0,1-9.65,180.91c-31-17.23-58.6-40-83.46-65.22a415.47,415.47,0,0,1-63.55-84.84C-174.28.06-187.84-32.93-198.57-66.74c-6.62-21-12.12-42.44-16.82-64Z"/><path class="cls-3" d="M-257.9-130.76a752.22,752.22,0,0,0,19.11,73.85c10.89,34.06,24.68,67.37,42.56,98.47a421.06,421.06,0,0,0,64.51,85.73c25.21,25.44,53.23,48.43,84.69,65.84a338.72,338.72,0,0,0,48.9,22.39A502.18,502.18,0,0,0,53.24,231c34.64,8.71,69.75,15.38,102.81,28.23a260,260,0,0,1,47.17,24.08,272.24,272.24,0,0,1,41.24,33.26l9.28,9.52c3,3.23,5.84,6.67,8.76,10s5.84,6.64,8.6,10.11l7.9,10.69c5.5,7,9.85,14.7,14.62,22.15,2.48,3.68,4.38,7.69,6.49,11.6l6.15,11.76c15.12,32.08,24.37,66.72,29.3,101.86,4.61,35.24,5.26,70.9,4.33,106.48s-3.65,71.13-5.71,106.73-3.83,71.29-2.92,107S335.4,895.93,343,930.89a393.9,393.9,0,0,0,36.85,100.37,399.5,399.5,0,0,0,28.73,45.25,445.42,445.42,0,0,0,34.79,40.74,494.41,494.41,0,0,0,65.09,55.26h3.05a492.69,492.69,0,0,1-66.73-56.64,442.31,442.31,0,0,1-34.53-40.61,374.63,374.63,0,0,1-64.86-144.9c-7.48-34.77-10.68-70.35-11.44-105.9s1-71.21,3.16-106.76,4.87-71.14,6-106.82.45-71.52-4.11-107c-4.88-35.42-14.16-70.43-29.38-103l-6.2-11.94a130.83,130.83,0,0,0-6.55-11.75c-4.79-7.56-9.2-15.41-14.75-22.47l-8-10.84c-2.79-3.52-5.79-6.83-8.68-10.25s-5.79-6.88-8.84-10.16l-9.38-9.65A275.35,275.35,0,0,0,205.41,280a262.76,262.76,0,0,0-47.85-24.58c-33.5-13.11-68.79-19.89-103.22-28.62A501.64,501.64,0,0,1,3.43,211.27a332.33,332.33,0,0,1-48.19-22.18c-31-17.23-58.6-40-83.46-65.22A417,417,0,0,1-191.77,39c-17.6-30.78-31.18-63.75-41.91-97.59a743.21,743.21,0,0,1-18.54-72.2Z"/><path class="cls-3" d="M-294.73-130.76a789.44,789.44,0,0,0,20.83,82c10.89,34.09,24.68,67.38,42.56,98.5a422.72,422.72,0,0,0,64.51,85.73c25.21,25.44,53.23,48.43,84.69,65.84a340.78,340.78,0,0,0,48.9,22.37,502.65,502.65,0,0,0,51.4,15.5c34.61,8.71,69.72,15.38,102.8,28.23a259.67,259.67,0,0,1,47.15,24.11,268.85,268.85,0,0,1,41.27,33.26l9.27,9.49c3,3.23,5.82,6.67,8.74,10s5.86,6.65,8.6,10.11l7.9,10.72c5.5,6.93,9.88,14.67,14.64,22.13C261,391,262.91,395,265,398.86l6.15,11.79c15.12,32.08,24.37,66.7,29.3,101.83,4.61,35.24,5.29,70.93,4.32,106.48s-3.62,71.16-5.7,106.77-3.81,71.26-2.92,107,4.14,71.42,11.73,106.4a394.25,394.25,0,0,0,36.88,100.35,389.12,389.12,0,0,0,28.72,45.25,446.55,446.55,0,0,0,34.77,40.74,487.29,487.29,0,0,0,53.93,47.07h3a486.07,486.07,0,0,1-55.5-48.43,443.93,443.93,0,0,1-34.51-40.63,374.21,374.21,0,0,1-64.88-144.87c-7.45-34.8-10.68-70.38-11.44-105.93s1-71.19,3.16-106.77,4.87-71.13,6-106.81.47-71.53-4.11-107c-4.88-35.42-14.16-70.45-29.38-103l-6.2-11.94c-2.11-3.94-4-8-6.52-11.76-4.82-7.56-9.23-15.4-14.78-22.44l-8-10.84c-2.77-3.52-5.79-6.86-8.68-10.27s-5.76-6.88-8.84-10.14L212.11,322a273.82,273.82,0,0,0-41.81-33.83,261,261,0,0,0-47.83-24.58C89,250.47,53.66,243.7,19.23,235a504.09,504.09,0,0,1-50.91-15.49,338.27,338.27,0,0,1-48.19-22.2c-31-17.23-58.57-40-83.44-65.19a417.67,417.67,0,0,1-63.57-84.87c-17.6-30.79-31.18-63.76-41.89-97.57A787.49,787.49,0,0,1-289-130.76Z"/><path class="cls-3" d="M-329-130.76v12a779.17,779.17,0,0,0,20,78.19C-298.12-6.45-284.3,26.86-266.45,58a422.89,422.89,0,0,0,64.54,85.72c25.18,25.44,53.2,48.43,84.66,65.85a344.51,344.51,0,0,0,48.9,22.39,507.73,507.73,0,0,0,51.4,15.5c34.64,8.71,69.72,15.36,102.8,28.23A258.94,258.94,0,0,1,133,299.74,271.74,271.74,0,0,1,174.27,333l9.27,9.51c3,3.23,5.82,6.67,8.74,10s5.86,6.68,8.62,10.14l7.88,10.69c5.52,7,9.87,14.7,14.64,22.16a132.34,132.34,0,0,1,6.47,11.57l6.18,11.78c15.09,32.09,24.37,66.7,29.27,101.86,4.64,35.22,5.29,70.9,4.32,106.48S266,698.3,264,733.91s-3.81,71.26-2.92,107,4.17,71.42,11.75,106.37a376.1,376.1,0,0,0,65.58,145.6,441.53,441.53,0,0,0,34.8,40.74,478.29,478.29,0,0,0,43.35,38.89h2.92a479.7,479.7,0,0,1-44.89-40.24A446.86,446.86,0,0,1,340,1091.66a374.11,374.11,0,0,1-64.88-144.9c-7.45-34.77-10.68-70.35-11.44-105.93s1-71.18,3.16-106.74,4.87-71.16,6-106.84.47-71.5-4.09-107c-4.9-35.43-14.15-70.46-29.37-103l-6.23-11.94a133.24,133.24,0,0,0-6.52-11.76c-4.82-7.56-9.23-15.4-14.78-22.46l-7.95-10.85c-2.79-3.52-5.81-6.83-8.7-10.27s-5.76-6.85-8.81-10.14L177,330.21a275.84,275.84,0,0,0-41.78-33.86,264.12,264.12,0,0,0-47.86-24.58c-33.52-13.11-68.81-19.86-103.24-28.62a505.61,505.61,0,0,1-50.91-15.48A339.12,339.12,0,0,1-115,205.49c-31-17.23-58.59-40-83.46-65.22A415.83,415.83,0,0,1-262,55.43c-17.62-30.81-31.17-63.79-41.91-97.59a791.6,791.6,0,0,1-21.84-88.6Z"/></g></svg>