<svg id="Layer_1" data-name="Layer 1" xmlns="http://www.w3.org/2000/svg" viewBox="0 0 851 205"><defs><style>.cls-1{fill:#fff;}</style></defs><title>Assets para layout do front</title><path class="cls-1" d="M116.27,185H91.39V60.1l-16.9,4.55V41.87L116.27,31.8Z"/><path class="cls-1" d="M182.66,186.16H128.37V32.53h54.29V55.25H153.59V99.14h27.14v22.33H153.59v42h29.07Z"/><path class="cls-1" d="M274.1,170.37c0,11.55-6,15.79-17.13,15.79H210.76V163.44h38.12v-42H226.94c-11.75,0-16.18-6-16.18-17.32V48.89c0-11.74,6-16.36,17.33-16.36h42.36V55.25H236V99.14h22c11.74,0,16.17,6.16,16.17,17.52Z"/><path class="cls-1" d="M371.9,113.39c0,11.74-6,16.17-17.32,16.17H329.74v56.6H304.52V32.53h50.06c11.36,0,17.32,4.62,17.32,16.36Zm-25.22-6.55V55.25H329.74v51.59Z"/><path class="cls-1" d="M468.94,170.37c0,11-5.39,15.79-16.75,15.79H418.5c-10.79,0-16.95-4.43-16.95-15.79v-122c0-10.59,5.59-15.79,16.95-15.79h33.69c11,0,16.75,4.43,16.75,15.79Zm-25.22-6.93V55.25h-17V163.44Z"/><path class="cls-1" d="M566.74,186.16H541.52v-56.6H524.57v56.6H499.35V32.53h50.06c11.36,0,17.33,4.62,17.33,16.36v56.6c0,7.51-3.47,11-9.24,12.71v.58c5.58.58,9.24,4,9.24,11.55ZM541.52,107V55.25H524.57V107Z"/><path class="cls-1" d="M664.15,55.25H642V186.16H616.79V55.25H594.85V32.53h69.3Z"/><path class="cls-1" d="M746.55,186.16H692.26V32.53h54.29V55.25H717.48V99.14h27.15v22.33H717.48v42h29.07Z"/><path class="cls-1" d="M838,170.37c0,11.55-6,15.79-17.13,15.79H774.66V163.44h38.12v-42H790.83c-11.74,0-16.17-6-16.17-17.32V48.89c0-11.74,6-16.36,17.33-16.36h42.35V55.25H799.88V99.14h22c11.74,0,16.17,6.16,16.17,17.52Z"/><path class="cls-1" d="M80.84,121.24H62.23v19.94H37.36V121.24H19.13v-22H37.36V79.47H62.23V99.21H80.84Z"/></svg>