<svg id="Layer_1" data-name="Layer 1" xmlns="http://www.w3.org/2000/svg" xmlns:xlink="http://www.w3.org/1999/xlink" viewBox="0 0 684 500"><defs><style>.cls-1{fill:none;}.cls-2{clip-path:url(#clip-path);}.cls-3{clip-path:url(#clip-path-2);}.cls-4{fill:#fff;}</style><clipPath id="clip-path"><path class="cls-1" d="M-20.24-9.07h725a0,0,0,0,1,0,0V319A180.59,180.59,0,0,1,524.15,499.59H-20.24a0,0,0,0,1,0,0V-9.07A0,0,0,0,1-20.24-9.07Z"/></clipPath><clipPath id="clip-path-2"><rect class="cls-1" x="5.71" y="-101.16" width="1186.67" height="608.79"/></clipPath></defs><title>Assets para layout do front</title><g class="cls-2"><g class="cls-3"><path class="cls-4" d="M830.82,512.11q-10.73-2.79-21.3-6.13c-22.1-7.06-43.68-16-63.85-27.59a274.26,274.26,0,0,1-55.58-41.84c-16.49-16.32-31.39-34.48-42.67-54.87a220.51,220.51,0,0,1-14.5-31.7,330.7,330.7,0,0,1-10.07-33.32c-5.63-22.44-10-45.2-18.28-66.64a167.69,167.69,0,0,0-15.63-30.56,175.27,175.27,0,0,0-21.56-26.75l-6.15-6c-2.1-2-4.34-3.77-6.49-5.66s-4.32-3.81-6.55-5.6l-7-5.1c-4.51-3.58-9.51-6.4-14.34-9.49a85.12,85.12,0,0,0-7.52-4.19l-7.64-4c-20.8-9.78-43.24-15.8-66-19-22.85-3-46-3.43-69-2.81s-46.13,2.35-69.21,3.7-46.19,2.47-69.34,1.89-46.31-2.7-69-7.62A254.86,254.86,0,0,1,104.12,105,251.76,251.76,0,0,1,74.81,86.33,293.72,293.72,0,0,1,48.4,63.8,326.67,326.67,0,0,1,4.66,10Q-5.37-5.43-14-21.72v-2.21q9,17.12,19.57,33.34A324.25,324.25,0,0,0,49.28,62.88,292,292,0,0,0,75.6,85.25a253,253,0,0,0,29.2,18.45,253.93,253.93,0,0,0,64.73,23.61c22.56,4.83,45.62,6.92,68.66,7.41s46.15-.64,69.21-2,46.11-3.16,69.24-3.87,46.36-.3,69.37,2.67c23,3.16,45.67,9.16,66.76,19l7.72,4a85.52,85.52,0,0,1,7.62,4.23c4.92,3.12,10,6,14.57,9.58l7,5.15c2.28,1.81,4.44,3.77,6.65,5.64s4.45,3.74,6.58,5.71l6.25,6.09A177.88,177.88,0,0,1,591.13,218a170.22,170.22,0,0,1,15.94,31c8.5,21.73,12.89,44.61,18.55,66.93a327,327,0,0,0,10,33,216.69,216.69,0,0,0,14.39,31.22c11.15,20.09,25.92,38,42.26,54.1a270.57,270.57,0,0,0,55,41.21,325.27,325.27,0,0,0,63.24,27.15q10.07,3.17,20.26,5.81Z"/><path class="cls-4" d="M830.82,536.24c-8.94-2.23-17.82-4.71-26.61-7.5-22.1-7.08-43.69-16-63.85-27.61a273.37,273.37,0,0,1-55.57-41.82c-16.49-16.34-31.39-34.5-42.68-54.89a220.07,220.07,0,0,1-14.51-31.7,327.72,327.72,0,0,1-10.06-33.3c-5.64-22.46-9.95-45.2-18.3-66.64a167.6,167.6,0,0,0-15.61-30.56,174.9,174.9,0,0,0-21.56-26.75l-6.16-6c-2.1-2-4.33-3.77-6.49-5.68s-4.31-3.79-6.56-5.58l-6.92-5.1c-4.52-3.58-9.53-6.4-14.37-9.5-2.38-1.6-5-2.83-7.51-4.19l-7.62-4c-20.8-9.78-43.24-15.8-66-19-22.83-3-46-3.41-69-2.81s-46.11,2.37-69.19,3.72-46.21,2.47-69.36,1.89-46.3-2.7-69-7.62a255.06,255.06,0,0,1-65.07-23.89A255.93,255.93,0,0,1,69.5,109.09,285.24,285.24,0,0,1,43.1,86.54,324.23,324.23,0,0,1-.65,32.76q-7-10.8-13.33-22V8.58c4.5,8,9.23,15.9,14.26,23.57A323.84,323.84,0,0,0,44,85.62,285.06,285.06,0,0,0,70.3,108a255.34,255.34,0,0,0,29.2,18.45,253.54,253.54,0,0,0,64.72,23.59c22.54,4.85,45.61,6.93,68.67,7.43s46.14-.64,69.19-2.06,46.12-3.16,69.25-3.85,46.35-.3,69.38,2.65c23,3.16,45.67,9.18,66.74,19l7.74,4a79.78,79.78,0,0,1,7.62,4.23c4.9,3.12,10,6,14.56,9.58l7,5.15c2.28,1.81,4.43,3.77,6.66,5.63s4.44,3.75,6.57,5.72l6.25,6.09a176.25,176.25,0,0,1,21.93,27.08,170.27,170.27,0,0,1,16,31c8.5,21.71,12.88,44.61,18.55,66.91a323.67,323.67,0,0,0,10,33A217.45,217.45,0,0,0,644.73,403c11.17,20.07,25.92,38,42.27,54.1a269.77,269.77,0,0,0,55,41.19c20,11.42,41.34,20.21,63.26,27.17,8.43,2.67,17,5,25.56,7.18Z"/><path class="cls-4" d="M830.82,560.3c-10.74-2.57-21.39-5.47-31.93-8.82-22.09-7.06-43.68-16-63.84-27.59a272.55,272.55,0,0,1-55.57-41.82c-16.49-16.34-31.39-34.5-42.68-54.89a220.56,220.56,0,0,1-14.51-31.7,324,324,0,0,1-10-33.32c-5.65-22.44-10-45.2-18.3-66.62A168.1,168.1,0,0,0,578.33,265a175.71,175.71,0,0,0-21.56-26.73l-6.17-6c-2.09-2-4.32-3.77-6.49-5.66s-4.31-3.79-6.55-5.58l-6.93-5.12c-4.51-3.56-9.53-6.38-14.36-9.48a80.12,80.12,0,0,0-7.52-4.2l-7.62-4c-20.8-9.8-43.25-15.8-66-19-22.84-3-46-3.42-69-2.81s-46.13,2.37-69.19,3.7-46.21,2.47-69.36,1.9-46.29-2.69-68.95-7.61a255.06,255.06,0,0,1-65.07-23.89,259.2,259.2,0,0,1-29.33-18.62A293.94,293.94,0,0,1,37.77,109.3,325.8,325.8,0,0,1-5.95,55.52q-4.14-6.36-8-12.9V40.55c2.89,4.85,5.86,9.63,9,14.36a323.24,323.24,0,0,0,43.69,53.47A286.26,286.26,0,0,0,65,130.77a253,253,0,0,0,29.2,18.43,253,253,0,0,0,64.73,23.61c22.54,4.83,45.6,6.93,68.65,7.42s46.16-.63,69.2-2S342.88,175,366,174.31s46.37-.3,69.39,2.67c23,3.16,45.66,9.18,66.74,19l7.74,4a83.25,83.25,0,0,1,7.62,4.25c4.9,3.1,10,6,14.57,9.56l7,5.17c2.26,1.81,4.42,3.75,6.64,5.62s4.46,3.76,6.58,5.73l6.26,6.07a179.19,179.19,0,0,1,21.93,27.1,170.16,170.16,0,0,1,15.93,31c8.5,21.71,12.89,44.59,18.55,66.91a328.84,328.84,0,0,0,10,33,218,218,0,0,0,14.38,31.24c11.17,20.07,25.92,38,42.26,54.08a270.2,270.2,0,0,0,55,41.21c20,11.41,41.33,20.21,63.26,27.17,10.17,3.19,20.48,6,30.87,8.48Z"/><path class="cls-4" d="M830.82,584.28c-12.54-2.86-25-6.15-37.24-10a328.7,328.7,0,0,1-63.85-27.59,274.11,274.11,0,0,1-55.57-41.84c-16.49-16.32-31.39-34.48-42.68-54.87A221.55,221.55,0,0,1,617,418.24a323.06,323.06,0,0,1-10.06-33.32c-5.64-22.44-10-45.2-18.3-66.64A168.28,168.28,0,0,0,573,287.72,174.66,174.66,0,0,0,551.45,261l-6.15-6c-2.1-2-4.35-3.77-6.49-5.66s-4.33-3.81-6.56-5.58l-6.94-5.12c-4.5-3.58-9.51-6.4-14.35-9.49a83.72,83.72,0,0,0-7.52-4.19l-7.63-4c-20.8-9.8-43.24-15.8-66-19-22.84-3-46-3.43-69-2.81s-46.12,2.35-69.2,3.7-46.19,2.47-69.34,1.89-46.31-2.7-69-7.62a254.45,254.45,0,0,1-65-23.89,249.5,249.5,0,0,1-29.33-18.62,290.84,290.84,0,0,1-26.41-22.54A326.52,326.52,0,0,1-11.27,78.27c-.92-1.4-1.81-2.8-2.71-4.22V72c1.2,1.91,2.4,3.8,3.63,5.68a325.24,325.24,0,0,0,43.7,53.47,285,285,0,0,0,26.34,22.37A252.36,252.36,0,0,0,88.87,172a254.07,254.07,0,0,0,64.73,23.61c22.55,4.83,45.62,6.92,68.66,7.41s46.14-.64,69.21-2,46.11-3.16,69.24-3.87,46.36-.3,69.37,2.67c23,3.16,45.67,9.17,66.76,19l7.74,4c2.55,1.37,5.18,2.61,7.6,4.23,4.92,3.12,10,6,14.56,9.58l7,5.17c2.28,1.79,4.45,3.75,6.66,5.62s4.44,3.74,6.57,5.73l6.25,6.07a176.53,176.53,0,0,1,22,27.1,169.38,169.38,0,0,1,15.93,31c8.5,21.73,12.9,44.61,18.56,66.93a326.94,326.94,0,0,0,10,33,219.06,219.06,0,0,0,14.4,31.24c11.15,20.07,25.92,38,42.25,54.08a270.9,270.9,0,0,0,55,41.21,325,325,0,0,0,63.24,27.15c11.91,3.75,24,7,36.19,9.7Z"/><path class="cls-4" d="M830.82,608.23c-14.33-3.14-28.54-6.8-42.54-11.23-22.1-7.08-43.7-16-63.85-27.61a273.09,273.09,0,0,1-55.57-41.82c-16.49-16.32-31.4-34.48-42.68-54.89A222,222,0,0,1,611.66,441a332.15,332.15,0,0,1-10-33.32c-5.64-22.46-10-45.2-18.3-66.64a167.6,167.6,0,0,0-15.61-30.56,174.9,174.9,0,0,0-21.56-26.75l-6.17-6c-2.09-2-4.32-3.77-6.48-5.67s-4.31-3.8-6.56-5.59l-6.93-5.1c-4.51-3.58-9.53-6.4-14.36-9.5a86,86,0,0,0-7.52-4.19l-7.62-4c-20.8-9.78-43.23-15.8-66-19-22.82-3-46-3.41-69-2.79s-46.11,2.35-69.19,3.7-46.21,2.47-69.35,1.89-46.3-2.7-69-7.62A255,255,0,0,1,82.89,196a254.56,254.56,0,0,1-29.32-18.62A288,288,0,0,1,27.16,154.8,322.75,322.75,0,0,1-14,104.94v-2a323.69,323.69,0,0,0,42,51,288,288,0,0,0,26.33,22.37,253.84,253.84,0,0,0,29.19,18.45,254.07,254.07,0,0,0,64.73,23.61c22.54,4.83,45.6,6.91,68.67,7.41s46.14-.64,69.19-2.06,46.12-3.16,69.25-3.85,46.35-.3,69.38,2.65c23,3.16,45.67,9.18,66.74,19l7.73,4a78.58,78.58,0,0,1,7.62,4.23c4.9,3.12,10,6,14.57,9.58l7,5.15c2.28,1.81,4.42,3.77,6.65,5.64s4.45,3.74,6.58,5.71L548,282A177.81,177.81,0,0,1,569.88,309a170.27,170.27,0,0,1,16,31c8.5,21.73,12.87,44.61,18.55,66.91a322.1,322.1,0,0,0,10,33,218.42,218.42,0,0,0,14.38,31.23c11.16,20.07,25.91,38,42.27,54.1a269.5,269.5,0,0,0,55,41.19c19.95,11.42,41.34,20.21,63.25,27.17,13.64,4.29,27.51,7.86,41.5,10.9Z"/><path class="cls-4" d="M830.82,632.13A490.24,490.24,0,0,1,783,619.74c-22.08-7.06-43.67-16-63.83-27.59a272.55,272.55,0,0,1-55.57-41.82c-16.49-16.34-31.39-34.5-42.68-54.89a219.48,219.48,0,0,1-14.51-31.7,327.72,327.72,0,0,1-10.06-33.3c-5.64-22.46-10-45.22-18.29-66.64a168.15,168.15,0,0,0-15.62-30.58,176.26,176.26,0,0,0-21.55-26.73l-6.17-6c-2.1-2-4.33-3.78-6.49-5.67s-4.31-3.79-6.56-5.58l-6.92-5.12c-4.51-3.56-9.53-6.38-14.36-9.48-2.39-1.6-5-2.84-7.52-4.2l-7.62-4c-20.8-9.8-43.26-15.8-66-19-22.85-3-46-3.42-69-2.81S304,247,281,248.33s-46.21,2.49-69.36,1.9-46.29-2.69-68.95-7.61a255.06,255.06,0,0,1-65.07-23.89,258.31,258.31,0,0,1-29.33-18.62,289.36,289.36,0,0,1-26.41-22.55A321.75,321.75,0,0,1-14,135.37v-2a319,319,0,0,0,36.72,43.25A286.26,286.26,0,0,0,49.06,199a250.75,250.75,0,0,0,29.2,18.43A252.91,252.91,0,0,0,143,241.07c22.53,4.85,45.6,6.93,68.64,7.42s46.16-.63,69.21-2.05,46.11-3.16,69.24-3.87,46.36-.29,69.39,2.67c23,3.16,45.65,9.18,66.74,19l7.74,4a87,87,0,0,1,7.62,4.24c4.9,3.11,10,6,14.56,9.57l7,5.17c2.28,1.81,4.43,3.75,6.64,5.62s4.46,3.76,6.59,5.73l6.25,6.08a178,178,0,0,1,21.93,27.09,170.22,170.22,0,0,1,15.94,31c8.5,21.71,12.89,44.59,18.55,66.91a326.26,326.26,0,0,0,10.05,33A215.79,215.79,0,0,0,623.49,494c11.17,20.07,25.92,38,42.27,54.1a270.5,270.5,0,0,0,55,41.19c20,11.41,41.33,20.21,63.26,27.17,15.36,4.83,31,8.73,46.8,12Z"/><path class="cls-4" d="M830.82,656a512.27,512.27,0,0,1-53.17-13.5c-22.1-7.06-43.68-16-63.85-27.59a273.74,273.74,0,0,1-55.57-41.82c-16.49-16.34-31.39-34.5-42.68-54.89a221.6,221.6,0,0,1-14.5-31.7,325.49,325.49,0,0,1-10-33.32c-5.64-22.44-10-45.2-18.3-66.64A167.69,167.69,0,0,0,557.07,356a173.47,173.47,0,0,0-21.56-26.75l-6.15-6c-2.09-2-4.32-3.77-6.49-5.66s-4.3-3.81-6.55-5.58l-7-5.12c-4.49-3.56-9.51-6.4-14.34-9.49-2.4-1.61-5-2.84-7.52-4.2l-7.64-4c-20.79-9.8-43.23-15.8-66-19-22.84-3-46-3.43-69-2.81s-46.12,2.35-69.2,3.7-46.2,2.47-69.35,1.89-46.29-2.68-69-7.6a255,255,0,0,1-65.05-23.91,250.45,250.45,0,0,1-29.34-18.62,288.89,288.89,0,0,1-26.4-22.54A315.66,315.66,0,0,1-14,165.36v-1.93a314.09,314.09,0,0,0,31.39,36,285.1,285.1,0,0,0,26.35,22.37A251.63,251.63,0,0,0,73,240.22a253.93,253.93,0,0,0,64.71,23.61c22.56,4.83,45.62,6.92,68.67,7.41s46.14-.62,69.2-2,46.11-3.16,69.24-3.87,46.37-.3,69.38,2.67c23,3.16,45.67,9.17,66.76,19l7.73,4c2.55,1.37,5.19,2.6,7.62,4.23,4.9,3.12,10,6,14.55,9.58l7,5.17c2.28,1.79,4.44,3.75,6.66,5.62s4.46,3.74,6.57,5.73l6.27,6.07a178.2,178.2,0,0,1,21.93,27.1,170,170,0,0,1,15.93,31c8.5,21.73,12.89,44.61,18.55,66.93a325.25,325.25,0,0,0,10,33,218.67,218.67,0,0,0,14.4,31.25c11.16,20.07,25.91,38,42.25,54.08a270.63,270.63,0,0,0,55,41.21,324.74,324.74,0,0,0,63.24,27.15,511.42,511.42,0,0,0,52.12,13.15Z"/><path class="cls-4" d="M830.82,678.23H823a506.13,506.13,0,0,1-50.69-13,329.4,329.4,0,0,1-63.85-27.59,274.47,274.47,0,0,1-55.57-41.84c-16.49-16.32-31.39-34.48-42.68-54.88a222.55,222.55,0,0,1-14.51-31.69,331.37,331.37,0,0,1-10.05-33.32c-5.65-22.46-9.95-45.2-18.3-66.64a167.6,167.6,0,0,0-15.61-30.56A175.87,175.87,0,0,0,530.21,352L524,346c-2.09-2-4.32-3.76-6.47-5.66s-4.33-3.8-6.57-5.59l-6.93-5.1c-4.51-3.58-9.53-6.4-14.36-9.5-2.38-1.6-5-2.83-7.5-4.19l-7.64-4c-20.8-9.78-43.24-15.8-66-19-22.83-3-46-3.43-69-2.81s-46.11,2.35-69.19,3.7-46.19,2.47-69.36,1.89S154.68,293,132,288.12A254.31,254.31,0,0,1,67,264.23a254.44,254.44,0,0,1-29.31-18.62,288,288,0,0,1-26.41-22.55A310.68,310.68,0,0,1-14,195v-1.89a310.15,310.15,0,0,0,26.09,29.09,289.21,289.21,0,0,0,26.32,22.37A254,254,0,0,0,67.63,263a253.93,253.93,0,0,0,64.73,23.61C154.9,291.42,178,293.51,201,294s46.15-.64,69.19-2,46.13-3.16,69.26-3.87,46.34-.31,69.37,2.65c23,3.18,45.67,9.18,66.74,19l7.74,4a83.08,83.08,0,0,1,7.62,4.23c4.9,3.12,10,6,14.57,9.58l7,5.15c2.29,1.81,4.43,3.77,6.66,5.64s4.45,3.74,6.57,5.71l6.26,6.09A178.48,178.48,0,0,1,554,377.3a171.49,171.49,0,0,1,15.94,31c8.5,21.73,12.87,44.61,18.55,66.93a330.15,330.15,0,0,0,10,33,219.52,219.52,0,0,0,14.38,31.23c11.17,20.09,25.94,38,42.28,54.1a269.43,269.43,0,0,0,55,41.19c20,11.42,41.35,20.21,63.26,27.17a514.74,514.74,0,0,0,57.43,14.16Z"/></g></g></svg>