<svg id="Layer_1" data-name="Layer 1" xmlns="http://www.w3.org/2000/svg" viewBox="0 0 833 425"><defs><style>.cls-1{fill:#fff;}</style></defs><title>Assets para layout do front</title><path class="cls-1" d="M28.52,64.91A120.24,120.24,0,0,1,41.58,49.65c4.66-4.71,9.51-9.21,14.58-13.45s10.32-8.24,15.78-12A118.83,118.83,0,0,1,89.25,14,119.55,119.55,0,0,1,76.19,29.26C71.52,34,66.68,38.48,61.61,42.7s-10.33,8.24-15.79,12A121.7,121.7,0,0,1,28.52,64.91Z"/><path class="cls-1" d="M79,64.93A121.74,121.74,0,0,1,92.1,49.68q7-7.08,14.58-13.45c5-4.26,10.32-8.24,15.78-12A118.36,118.36,0,0,1,139.76,14a119.36,119.36,0,0,1-13,15.26C122,34,117.2,38.5,112.12,42.73s-10.33,8.24-15.79,12A119.31,119.31,0,0,1,79,64.93Z"/><path class="cls-1" d="M129.55,65a120.21,120.21,0,0,1,13.07-15.25c4.66-4.72,9.51-9.22,14.57-13.45S167.52,28,173,24.24a120.28,120.28,0,0,1,17.31-10.19,117.3,117.3,0,0,1-13.06,15.26c-4.66,4.72-9.51,9.22-14.58,13.44s-10.33,8.24-15.79,12A121.15,121.15,0,0,1,129.55,65Z"/><path class="cls-1" d="M180.07,65a120.84,120.84,0,0,1,13.06-15.25q7-7.08,14.58-13.45c5-4.26,10.32-8.24,15.78-12A118.83,118.83,0,0,1,240.8,14.08a120.24,120.24,0,0,1-13.06,15.26c-4.66,4.71-9.51,9.21-14.58,13.44s-10.33,8.24-15.79,12A119.31,119.31,0,0,1,180.07,65Z"/><path class="cls-1" d="M230.58,65a121,121,0,0,1,13.07-15.25c4.66-4.72,9.51-9.22,14.58-13.45s10.32-8.25,15.78-12A119.74,119.74,0,0,1,291.32,14.1a119.65,119.65,0,0,1-13.06,15.27c-4.67,4.71-9.51,9.21-14.59,13.44s-10.33,8.23-15.79,12A121.15,121.15,0,0,1,230.58,65Z"/><path class="cls-1" d="M281.1,65a120.31,120.31,0,0,1,13.07-15.26q7-7.08,14.57-13.45c5.05-4.26,10.33-8.24,15.78-12a119.36,119.36,0,0,1,17.31-10.19,119.36,119.36,0,0,1-13.05,15.26c-4.67,4.71-9.51,9.22-14.59,13.44s-10.33,8.24-15.79,12A120.27,120.27,0,0,1,281.1,65Z"/><path class="cls-1" d="M331.62,65.06a120.14,120.14,0,0,1,13.06-15.25q7-7.08,14.58-13.45c5.05-4.26,10.33-8.24,15.78-12a119.74,119.74,0,0,1,17.31-10.19,119.65,119.65,0,0,1-13.06,15.27c-4.66,4.71-9.51,9.21-14.58,13.44s-10.33,8.23-15.79,12A121.15,121.15,0,0,1,331.62,65.06Z"/><path class="cls-1" d="M382.14,65.09A120.24,120.24,0,0,1,395.2,49.83c4.66-4.71,9.51-9.21,14.58-13.45s10.32-8.24,15.78-12a118.83,118.83,0,0,1,17.31-10.19,120.24,120.24,0,0,1-13.06,15.26c-4.67,4.72-9.51,9.22-14.59,13.44s-10.32,8.24-15.78,12A122.26,122.26,0,0,1,382.14,65.09Z"/><path class="cls-1" d="M432.65,65.11a121.74,121.74,0,0,1,13.07-15.25q7-7.08,14.57-13.45c5-4.26,10.33-8.24,15.78-12a120,120,0,0,1,17.31-10.2,118.78,118.78,0,0,1-13.05,15.27c-4.67,4.71-9.51,9.21-14.59,13.44s-10.33,8.23-15.79,12A120.22,120.22,0,0,1,432.65,65.11Z"/><path class="cls-1" d="M483.17,65.14a120.24,120.24,0,0,1,13.06-15.26c4.67-4.71,9.52-9.21,14.58-13.44s10.33-8.25,15.78-12A119.36,119.36,0,0,1,543.9,14.23a118.75,118.75,0,0,1-13.06,15.26c-4.66,4.72-9.51,9.22-14.58,13.44s-10.33,8.24-15.79,12A121.15,121.15,0,0,1,483.17,65.14Z"/><path class="cls-1" d="M533.69,65.16a120.84,120.84,0,0,1,13.06-15.25q7-7.08,14.58-13.45c5-4.26,10.32-8.24,15.78-12a118.83,118.83,0,0,1,17.31-10.19,120.24,120.24,0,0,1-13.06,15.26c-4.67,4.71-9.51,9.21-14.58,13.44S556.45,51.2,551,55A119.85,119.85,0,0,1,533.69,65.16Z"/><path class="cls-1" d="M584.2,65.19a121,121,0,0,1,13.07-15.25c4.66-4.72,9.51-9.22,14.58-13.45s10.32-8.25,15.78-12a120.17,120.17,0,0,1,17.3-10.19,118,118,0,0,1-13,15.26c-4.67,4.72-9.51,9.22-14.59,13.44S607,51.22,601.5,55A121.15,121.15,0,0,1,584.2,65.19Z"/><path class="cls-1" d="M634.72,65.21A120.1,120.1,0,0,1,647.79,50q7-7.08,14.57-13.45c5-4.26,10.33-8.24,15.78-12a119.36,119.36,0,0,1,17.31-10.19,119.43,119.43,0,0,1-13.06,15.26c-4.66,4.71-9.51,9.21-14.58,13.44S657.48,51.25,652,55A119.31,119.31,0,0,1,634.72,65.21Z"/><path class="cls-1" d="M685.24,65.24A120.14,120.14,0,0,1,698.3,50c4.66-4.72,9.51-9.22,14.58-13.45s10.32-8.25,15.78-12A119.74,119.74,0,0,1,746,14.33,119.65,119.65,0,0,1,732.91,29.6c-4.66,4.71-9.51,9.21-14.58,13.44S708,51.27,702.54,55A121.15,121.15,0,0,1,685.24,65.24Z"/><path class="cls-1" d="M735.75,65.27A121.13,121.13,0,0,1,748.82,50q7-7.08,14.58-13.45c5-4.26,10.32-8.24,15.78-12a118.83,118.83,0,0,1,17.31-10.19,120.24,120.24,0,0,1-13.06,15.26c-4.67,4.71-9.51,9.22-14.59,13.44s-10.33,8.24-15.79,12A121.15,121.15,0,0,1,735.75,65.27Z"/><path class="cls-1" d="M31.13,111.58h15.6L44.3,128.81H56l2.42-17.23H74l-2.43,17.23h5.9v14.45H69.62l-2.2,16.41H77.48v14.45h-12L63,191.34H47.42l2.43-17.22H38.18l-2.43,17.22H20.15l2.42-17.22H16.68V159.67h7.86l2.19-16.41h-10V128.81h12Zm11.21,31.68-2.2,16.41H51.82L54,143.26Z"/><path class="cls-1" d="M88,111.58h53.29v17H106.37v11.67h20.81V156H106.37v18.38H142v17H88Z"/><path class="cls-1" d="M155,173.19a42.56,42.56,0,0,1-5.5-21.73,42.76,42.76,0,0,1,5.5-21.84,39.24,39.24,0,0,1,15.14-14.86,49,49,0,0,1,44.62,0,38.68,38.68,0,0,1,15.08,15,44.07,44.07,0,0,1,5.43,22.08q0,14.44-7.74,24.62l15.25,15.14v.81H222l-6-5.66a44.62,44.62,0,0,1-11.27,4.85A47.56,47.56,0,0,1,170.12,188,38.81,38.81,0,0,1,155,173.19Zm58.31-9.36A25.06,25.06,0,0,0,216.06,152a26.92,26.92,0,0,0-2.94-12.89,21.75,21.75,0,0,0-8.27-8.61,26.29,26.29,0,0,0-24.73-.06,22.22,22.22,0,0,0-8.38,8.5,24.88,24.88,0,0,0-3.07,12.48,25.47,25.47,0,0,0,3.07,12.66,22,22,0,0,0,8.38,8.55,24,24,0,0,0,12.25,3.07,25.4,25.4,0,0,0,9.71-1.85l-22.31-20.46h22.89Z"/><path class="cls-1" d="M247.27,111.58h18.5v49.94q0,6.82,3,10.46t8.67,3.64q5.78,0,8.78-3.64t3-10.46V111.58h18.49v51.21q0,14.91-7.8,22.83t-22.48,7.92q-14.69,0-22.42-7.92t-7.75-22.83Z"/><path class="cls-1" d="M322.29,111.58h18.49v79.76H322.29Z"/><path class="cls-1" d="M356,111.58h29.59q15,0,23.34,6.59t8.33,18.38q0,11.91-7.86,19.42T384,168.57l-9.48,2.77v20H356Zm24.5,40.69q9.36-2.53,13.52-6a10.92,10.92,0,0,0,4.16-8.78,8.29,8.29,0,0,0-3.4-7q-3.42-2.55-9.89-2.55h-10.4v26Z"/><path class="cls-1" d="M427.58,111.58h53.29v17H446v11.67h20.81V156H446v18.38h35.6v17h-54Z"/><path class="cls-1" d="M31.13,222.57h15.6L44.3,239.79H56l2.42-17.22H74l-2.43,17.22h5.9v14.45H69.62l-2.2,16.41H77.48V285.1h-12L63,302.32H47.42l2.43-17.22H38.18l-2.43,17.22H20.15l2.42-17.22H16.68V270.65h7.86l2.19-16.41h-10V239.79h12Zm11.21,31.67-2.2,16.41H51.82L54,254.24Z"/><path class="cls-1" d="M90.71,283.77Q85,274.58,85,262.1a38.55,38.55,0,0,1,5.78-21.21,38,38,0,0,1,16.41-14q10.63-5,25-5a38.48,38.48,0,0,1,4,.23c1.42.16,2.6.31,3.52.47v17.8a24.27,24.27,0,0,0-2.95-.41c-1.27-.11-2.52-.17-3.75-.17q-12.6,0-20.12,5.89t-7.51,16.19a21.92,21.92,0,0,0,3.41,12.19,22.52,22.52,0,0,0,9.48,8.15,32.52,32.52,0,0,0,14.16,2.89q2.43,0,4.62-.18a26,26,0,0,0,3.24-.4v17.69a41.24,41.24,0,0,1-4.16.57c-1.62.16-3.39.24-5.32.24q-13.63,0-24-5A38,38,0,0,1,90.71,283.77Z"/><path class="cls-1" d="M152.43,284.23a46.09,46.09,0,0,1,0-43.63,39.17,39.17,0,0,1,15.15-14.85,44.88,44.88,0,0,1,22.25-5.38,45.12,45.12,0,0,1,22.36,5.38,39.21,39.21,0,0,1,15.14,14.85,46.09,46.09,0,0,1,0,43.63,39.09,39.09,0,0,1-15.14,14.91,45.12,45.12,0,0,1-22.36,5.38,44.88,44.88,0,0,1-22.25-5.38A39,39,0,0,1,152.43,284.23Zm58.09-9.3a27.48,27.48,0,0,0,0-25,21.88,21.88,0,0,0-8.33-8.5,26.27,26.27,0,0,0-24.61,0,22.24,22.24,0,0,0-8.39,8.5,27,27,0,0,0,0,25,22.15,22.15,0,0,0,8.39,8.49,26.27,26.27,0,0,0,24.61,0A21.79,21.79,0,0,0,210.52,274.93Z"/><path class="cls-1" d="M245.19,220.83h1.16l41.84,32.6V222.57h18.49v79.75H288.19V274.93l-24.51-19.77v47.16H245.19Z"/><path class="cls-1" d="M322.06,222.57h53.28v17H340.43v11.67h20.81V267H340.43v18.38H376v17h-54Z"/><path class="cls-1" d="M459.25,302.32h-22l-17.57-27.39L402.5,302.32H381.7l26.46-41.61-24.5-38.14h21.73l15.49,24.5,14.8-24.5h20.69l-23.93,37.91Z"/><path class="cls-1" d="M504,220.72h1.27l42.07,81.6H526.87l-5.2-11H487.23l-5.55,11H461.91ZM483.41,199a18.39,18.39,0,0,1,4.63-2.32,15.58,15.58,0,0,1,5.08-.92,25.06,25.06,0,0,1,5.95.69,41.53,41.53,0,0,1,6.77,2.43,31.64,31.64,0,0,0,5.54,2.08,19.73,19.73,0,0,0,4.86.58,17.73,17.73,0,0,0,9.94-3.35v13.29a16,16,0,0,1-4.57,2.31,15.86,15.86,0,0,1-5.14.93,25.58,25.58,0,0,1-6.07-.7,34.7,34.7,0,0,1-6.65-2.54,30.58,30.58,0,0,0-5.25-2,20.62,20.62,0,0,0-5.15-.58,17.63,17.63,0,0,0-9.94,3.35Zm31,77.09-9.94-20.69-9.83,20.69Z"/><path class="cls-1" d="M551.09,284.23a46.09,46.09,0,0,1,0-43.63,39.21,39.21,0,0,1,15.14-14.85,48.95,48.95,0,0,1,44.62,0A39.21,39.21,0,0,1,626,240.6a46.09,46.09,0,0,1,0,43.63,39.09,39.09,0,0,1-15.14,14.91,48.95,48.95,0,0,1-44.62,0A39.09,39.09,0,0,1,551.09,284.23Zm58.08-9.3a27.4,27.4,0,0,0,0-25,21.86,21.86,0,0,0-8.32-8.5,24.35,24.35,0,0,0-12.37-3.06,24.11,24.11,0,0,0-12.25,3.06,22.22,22.22,0,0,0-8.38,8.5,27,27,0,0,0,0,25,22.12,22.12,0,0,0,8.38,8.49,24,24,0,0,0,12.25,3.06,24.25,24.25,0,0,0,12.37-3.06A21.77,21.77,0,0,0,609.17,274.93Z"/><path class="cls-1" d="M31.13,333.55h15.6L44.3,350.77H56l2.42-17.22H74l-2.43,17.22h5.9v14.45H69.62l-2.2,16.42H77.48v14.44h-12L63,413.31H47.42l2.43-17.23H38.18l-2.43,17.23H20.15l2.42-17.23H16.68V381.64h7.86l2.19-16.42h-10V350.77h12Zm11.21,31.67-2.2,16.42H51.82L54,365.22Z"/><path class="cls-1" d="M88,333.55h29.59q15,0,23.35,6.59t8.32,18.38q0,11.91-7.85,19.42T116,390.53l-9.48,2.78v20H88Zm24.51,40.69q9.36-2.55,13.52-6a11,11,0,0,0,4.16-8.79,8.32,8.32,0,0,0-3.41-7.05q-3.4-2.53-9.88-2.54h-10.4v26Z"/><path class="cls-1" d="M159.54,333.55h32.83q13.41,0,20.63,6t7.22,17.11q0,13.51-11.78,21.38l14.44,35.26H203.12l-10.75-28.55L178,389v24.28H159.54Zm27.05,37q7.86-2.09,11.21-5a9.86,9.86,0,0,0,3.35-7.86,7,7,0,0,0-2.89-5.95c-1.92-1.43-4.66-2.14-8.2-2.14H178v23.23Z"/><path class="cls-1" d="M268,331.7h1.27l42.08,81.61H290.85l-5.2-11H251.2l-5.55,11H225.89Zm10.4,55.37-9.94-20.69-9.82,20.69Z"/><path class="cls-1" d="M327.61,350.54H306.34v-17h61v17H346.1v62.77H327.61Z"/><path class="cls-1" d="M377.88,333.55h18.5v79.76h-18.5Z"/><path class="cls-1" d="M414.35,394.75q-5.72-9.18-5.72-21.67a38.57,38.57,0,0,1,5.78-21.21,37.89,37.89,0,0,1,16.41-14q10.64-5,25-5a35.89,35.89,0,0,1,4,.23c1.42.15,2.6.31,3.52.46v17.8a24.41,24.41,0,0,0-2.94-.4c-1.28-.12-2.53-.18-3.76-.18q-12.6,0-20.11,5.9T429,372.85A21.92,21.92,0,0,0,432.38,385a22.51,22.51,0,0,0,9.48,8.15A32.58,32.58,0,0,0,456,396.08c1.62,0,3.16-.06,4.62-.17a25.06,25.06,0,0,0,3.24-.41v17.69c-1.16.23-2.54.42-4.16.58s-3.39.23-5.32.23q-13.63,0-24-5A38,38,0,0,1,414.35,394.75Z"/><path class="cls-1" d="M475.44,333.55h18.49v79.76H475.44Z"/><path class="cls-1" d="M509.19,333.55h25q21.39,0,33,10.46t11.62,29.42q0,19-11.62,29.41t-33,10.47h-25Zm27.62,62.65q10.41,0,16.59-6.19t6.18-16.58q0-10.41-6.18-16.59t-16.59-6.18h-9.13V396.2Z"/><path class="cls-1" d="M619.11,331.7h1.27l42.08,81.61H642l-5.21-11H602.35l-5.54,11H577Zm10.41,55.37-9.95-20.69-9.82,20.69Z"/><path class="cls-1" d="M670.89,333.55h25q21.39,0,33,10.46t11.62,29.42q0,19-11.62,29.41t-33,10.47h-25Zm27.63,62.65q10.4,0,16.59-6.19t6.18-16.58q0-10.41-6.18-16.59t-16.59-6.18h-9.13V396.2Z"/><path class="cls-1" d="M752.84,333.55h53.29v17H771.22v11.67H792v15.73H771.22v18.37h35.6v17h-54Z"/></svg>