<svg id="Layer_1" data-name="Layer 1" xmlns="http://www.w3.org/2000/svg" viewBox="0 0 740 823"><defs><style>.cls-1{fill:#fff;}.cls-2{fill:#f43737;}</style></defs><title>Assets para layout do front</title><path class="cls-1" d="M61.61,327.47,58,343l16.66,3.86-4.81,20.79L53.2,363.81,49.67,379l-18.41-4.26,3.53-15.23-16.51-3.83,4.82-20.78,16.5,3.82,3.6-15.55Z"/><path class="cls-1" d="M138.93,290.84l-10,18.87-94.79-50-3.31,14.64-17.28-9.12,9.09-35.72Z"/><path class="cls-1" d="M214.81,210.5l-35.61,29L97.08,138.78l35.6-29,12.14,14.89-19.06,15.54L149.22,169,167,154.47,179,169.11l-17.8,14.51,22.44,27.52,19.06-15.54Z"/><path class="cls-1" d="M272,167.59c4,8.93.83,14.26-7.79,18.11l-35.7,15.92-7.83-17.55,29.45-13.14-14.47-32.42-17,7.56c-9.07,4.05-14.55,1-18.46-7.81L181.17,95.57c-4-9.07-1-14.7,7.74-18.62l32.73-14.6,7.83,17.55L202.84,91.78,218,125.7l17-7.57c9.07-4,14.62-.81,18.54,8Z"/><path class="cls-1" d="M342.36,106.05c1.35,9.84-3.14,14.24-12.66,15.55l-20.81,2.87,6.53,47.44-21.14,2.91L276.54,46.06l42-5.78C328,39,333.55,42.15,334.91,52Zm-21.9-2.57-6-43.25-14.2,2,6,43.24Z"/><path class="cls-1" d="M426.27,162.81c-1.44,9.17-6.57,12.49-16.07,11L382,169.42c-9-1.41-13.58-5.92-12.1-15.41L385.88,52c1.38-8.86,6.73-12.47,16.22-11l28.17,4.4c9.17,1.43,13.42,5.89,11.94,15.38Zm-20.18-9.09,14.13-90.44-14.16-2.22-14.13,90.45Z"/><path class="cls-1" d="M492.32,205.9l-19.23-9.24,20.73-43.16-12.92-6.21-20.73,43.17-19.24-9.24L497.2,64.05l38.17,18.34c8.66,4.16,11.52,9.87,7.22,18.82l-20.73,43.17c-2.74,5.73-6.66,7.1-11.7,6.31l-.21.44c4.05,2.48,5.57,6.46,2.82,12.19Zm9.75-69.58,19-39.5-12.92-6.2-19,39.49Z"/><path class="cls-1" d="M623.2,171.64l-13.9-12.55-74.21,82.23L519.25,227l74.21-82.22-13.79-12.44,12.88-14.27,43.53,39.28Z"/><path class="cls-1" d="M583.68,305.54l-24.85-38.63L668.15,196.6,693,235.23l-16.17,10.4-13.3-20.69L632.29,245l12.43,19.32-15.89,10.22L616.4,255.25l-29.86,19.21,13.3,20.69Z"/><path class="cls-1" d="M619.88,367.18c-9.31,3-14.25-.77-17.11-9.77L591,320.14l18.32-5.81L619,345.07l33.85-10.73-5.62-17.7c-3-9.47.68-14.57,9.84-17.48L701.65,285c9.47-3,14.72.63,17.63,9.79L730.11,329l-18.32,5.81L703,307l-35.4,11.23,5.61,17.7c3,9.47-.83,14.62-10,17.52Z"/><path class="cls-1" d="M665.94,411.46a294.25,294.25,0,0,1-293,296,298.25,298.25,0,0,1-113.58-21.76A294.65,294.65,0,0,1,207.9,658.4c-1-.63-2-1.36-3-2.06l-3-2.12L196,650c-2-1.43-3.83-3-5.75-4.47L184.52,641c-3.7-3.15-7.33-6.38-11-9.57L163,621.34a296.07,296.07,0,0,1-36.51-45.25,289.47,289.47,0,0,1-26.72-51.5A285.22,285.22,0,0,1,84,468.93l-1.1-7.15-.55-3.57-.27-1.78c-.08-.6-.13-1.2-.2-1.8l-.73-7.18-.37-3.59c-.12-1.2-.27-2.39-.31-3.59-.23-4.81-.53-9.61-.7-14.4l.07-14.41h.84a302.9,302.9,0,0,0,24.55,110.87,296.27,296.27,0,0,0,63.7,93.09l10.31,9.71c3.59,3.06,7.14,6.17,10.76,9.2,3.74,2.87,7.4,5.85,11.17,8.68l5.77,4.1,2.88,2c1,.68,1.91,1.38,2.92,2A291.34,291.34,0,0,0,262.49,678a287.21,287.21,0,0,0,54,16.82,293.12,293.12,0,0,0,56.38,5.9A291.18,291.18,0,0,0,665.11,411.46Z"/><path class="cls-2" d="M390.3,135.87c2.05,1.94,3,4.5,4.1,7s1.17,2.48,3.67,1.76c4-1.14,6.51.16,7.69,4.16a14.4,14.4,0,0,1,.75,4.84c-.61,10.44,2.05,20.32,5,30.13s6.15,19.68,9.4,29.46a100.07,100.07,0,0,1,3.94,17.82,183.34,183.34,0,0,1,1.46,28.78,215.19,215.19,0,0,1-3.59,35.65,307.41,307.41,0,0,0-5,40.68c-.84,15.71-1.09,31.42-.61,47.14.42,14,1,28,1.78,41.94.63,11.08,1.69,22.14,2.61,33.2a3.46,3.46,0,0,1-1.31,3.47c-2.55,1.94-4.94,4.1-7.53,6a3.15,3.15,0,0,0-1.39,3.38c.74,5.41,1.39,10.84,2.05,16.27a20.61,20.61,0,0,1,.25,3.5c-.24,5.66.7,11.23,1.1,16.84.36,5.22.92,10.43,1.19,15.66a244.14,244.14,0,0,1,0,31.89c-.37,4.59-1.05,9.15-1.57,13.73-1.28,11.12-2.17,22.28-1.3,33.46.49,6.31,1.46,12.57,2.2,18.85s1.41,12.26,2.12,18.4c.89,7.84,1.73,15.68,2.69,23.52.93,7.52,1.88,15,3,22.53a148.5,148.5,0,0,0,4.6,22.47c.34,1.12.76,2.22,1.16,3.32a7.43,7.43,0,0,0,6.37,5.19c3.4.45,6.83.77,10.26,1,4.68.25,9.37.36,14,1.39,3.76.84,7.2,2.21,9.21,5.81.47.84,1.25.82,2,.85,3,.11,5.94.25,8.91.32,8.44.22,16.89.4,25.33.61l56.28,1.46,35.64.91q16.65.42,33.3.87a10.2,10.2,0,0,1,3.16.66,12.19,12.19,0,0,1-4.66,1c-2.8.24-5.6.5-8.37,1a9.77,9.77,0,0,0-3.41,1.45c-1.2.76-1.2,1.53-.11,2.44a29.14,29.14,0,0,0,2.93,1.94c.39.24.82.44,1.24.65l-.28.69a11.26,11.26,0,0,1-2,.78,49.84,49.84,0,0,1-5.55.82c-7.57.56-15.14,1-22.69,1.57-4.21.33-8.4.87-12.59,1.37-1.63.19-2.2.9-2.21,2.45s.53,2.22,2.16,2.5c1.31.22,2.63.34,3.94.56,1.62.27,2.23.91,2.19,2.21s-.62,1.86-2.33,2.06a151.28,151.28,0,0,1-21.07.92c-7.58-.19-15.17-.29-22.75-.46q-29.31-.64-58.63-1.3-26-.57-52.07-1.07c-3.83-.08-7.66-.25-11.49-.33-1.92,0-2.46.29-2.79,1.47a2.8,2.8,0,0,0,1.54,3.5c1.16.65,2.34,1.26,3.51,1.89a5.1,5.1,0,0,1,.8.5c1,.81,2.61,1.51,2.1,3s-2.29,1.35-3.66,1.28-2.79-.32-4.18-.52q-20.42-3-40.82-5.91c-11.45-1.64-22.9-3.23-34.34-4.87s-22.9-3.21-34.32-5c-5.3-.84-10.59-.68-15.9-.6q-24.63.35-49.26.74l-58.17.94-58.16.94c-10.79.19-21.58.33-32.37.65a8.53,8.53,0,0,1-8.09-4.13,10.43,10.43,0,0,0-1.25-1.33v-.94a36.18,36.18,0,0,1,9.45-6.39,20.23,20.23,0,0,1,14.81-1.54c3.24.88,6.52,1.62,9.74,2.56a28.72,28.72,0,0,0,14.12.35q16.88-3.46,33.81-6.55c9.14-1.66,18.34-3,27.5-4.59,6.27-1.08,12.6-1.13,18.92-1.26,12.35-.25,24.71-.53,37.06-.75a4.54,4.54,0,0,0,3.51-1.43,16.55,16.55,0,0,1,6.67-3.79c5.33-1.92,10.89-2.77,16.44-3.69,2.85-.48,5.69-1,8.54-1.43a6.45,6.45,0,0,0,5.77-5.09,72.07,72.07,0,0,0,2-10.56,237.92,237.92,0,0,0,.22-32.81c-.35-7.18-.69-14.37-1.09-21.55-.35-6.17-.89-12.32-1.18-18.49a150.13,150.13,0,0,1-.33-16.16c.39-6.16.35-12.35.55-18.53.33-10.08.56-20.16,1.1-30.23.55-10.3,1.38-20.59,2.17-30.88A273.2,273.2,0,0,1,293.75,501a76.18,76.18,0,0,1,4.11-14.88c2.75-6.68,3.42-13.75,3.88-20.87.48-7.41,1.11-14.8,1.72-22.21.49-6,1-12,1.57-18,1-9.72,1.78-19.45,3.72-29,.25-1.23.69-2.42.88-3.65.3-1.95-.7-2.7-2.44-1.84a11.57,11.57,0,0,0-2.92,1.93c-3.3,3.11-6.64,6.18-9.74,9.49-7.11,7.61-13.25,16-19.23,24.52a372.76,372.76,0,0,1-30.43,38.4,112.77,112.77,0,0,1-14.83,14,70.48,70.48,0,0,1-7.46,4.84,17.58,17.58,0,0,1-9,2.08,8.08,8.08,0,0,1-1.63-.12c-2.46-.47-3.2-1.75-2.21-4a13.27,13.27,0,0,1,1.92-3.2c1.77-2.09,3.72-4,5.51-6.08a76.88,76.88,0,0,0,6.54-7.93c11.52-17.51,22.88-35.11,34.34-52.65a74,74,0,0,0,6.76-13.35c5.37-13.58,10.79-27.15,16.37-40.64a161.24,161.24,0,0,1,10.48-20.95c.77-1.27,1.58-2.52,2.38-3.77a32,32,0,0,1,9.51-9.57,340,340,0,0,1,30.93-17.68c1.59-.82,3.21-1.61,4.8-2.44.61-.31,1.17-.69,1.89-1.13a8.13,8.13,0,0,0-1-.91c-7.16-4.71-11.39-11.5-13.66-19.56a45.79,45.79,0,0,1,2.34-32.48,31.67,31.67,0,0,1,8.2-11c9.12-7.77,21-7.45,29.74.79a35.19,35.19,0,0,1,10,17.5c3.09,12.35,1.88,24.18-4.73,35.26-.64,1.07-1.43,2-2.15,3.07-1,1.36-.75,2.56.75,3.2a5.59,5.59,0,0,0,2.94.41,30.06,30.06,0,0,0,5.19-1.37,10.32,10.32,0,0,0,6.45-6.7A84.59,84.59,0,0,0,388.47,279c1.77-9.36,3.32-18.76,4.79-28.18,1.08-6.94,2.13-13.91,2.75-20.9.57-6.53.77-13.12.74-19.67,0-8.05-.28-16.11-.79-24.15-.75-11.85-1.94-23.66-5-35.22-1-3.69-1.44-7.51-2.09-11.28a4.11,4.11,0,0,1,.94-3.72Zm-82.47,588c.74,0,1.51.13,2.27.11,10.23-.19,20.48-.22,30.71-.63,16.65-.66,33.29-.1,49.93.4q9.74.29,19.46.54c1.88.05,2.14-.15,2.07-1.93-.16-4.21-.43-8.38-1.93-12.43q-10.86-29.46-21.51-59c-2.68-7.49-5.06-15.09-7.41-22.7-1.52-4.91-2.58-10-4.09-14.89-3.95-12.84-8.11-25.61-12.05-38.45a208.23,208.23,0,0,1-6.66-26.32c-.46-2.67-2.13-4.29-4.34-4.58s-4.1.74-5.36,3.31c-.72,1.47-1.36,3-1.95,4.51-9.81,25.77-19.3,51.61-25.43,78.6-4.88,21.46-10.82,42.69-14.18,64.49-1,6.48-2.06,13-1.18,19.58C306.59,717.57,307.25,720.62,307.83,723.87Z"/><path class="cls-2" d="M81.73,775.76H104v5H87.17V789H97.36v5H87.17v16.8H81.73Z"/><path class="cls-2" d="M117.11,775.09h.51l17.77,35.79h-6.11l-3.16-6.67H108.61l-3.31,6.67h-6Zm6.62,24.19-6.42-13.5L111,799.28Z"/><path class="cls-2" d="M137.85,802.66a17.69,17.69,0,0,1-2.52-9.54A16.37,16.37,0,0,1,145,777.66a24.82,24.82,0,0,1,10.82-2.21,16.46,16.46,0,0,1,1.78.1,10.78,10.78,0,0,1,1.58.26V781a14.73,14.73,0,0,0-1.5-.18c-.63,0-1.25-.08-1.86-.08A18.8,18.8,0,0,0,148,782.2a12,12,0,0,0-5.22,4.25,11.42,11.42,0,0,0-1.86,6.56,12.11,12.11,0,0,0,7,11.33,17.08,17.08,0,0,0,7.61,1.61c.78,0,1.53,0,2.26-.08a15.75,15.75,0,0,0,1.66-.18v5.14a16.84,16.84,0,0,1-1.79.26c-.71.06-1.49.1-2.34.1A23.24,23.24,0,0,1,144.88,809,17,17,0,0,1,137.85,802.66Zm10.87,7.21h3.41v2.74h.41a4.43,4.43,0,0,1,3.29,1.38,4.67,4.67,0,0,1,1.35,3.36,4.92,4.92,0,0,1-2,4.07,8.6,8.6,0,0,1-5.4,1.58,7.46,7.46,0,0,1-1.14-.08l-.95-.12v-3.87c.24,0,.46.06.67.07s.42,0,.66,0a5.64,5.64,0,0,0,2.6-.51,1.48,1.48,0,0,0,.25-2.65,3.74,3.74,0,0,0-2-.45h-.63a1.8,1.8,0,0,0-.49.05Z"/><path class="cls-2" d="M180.08,775.09h.51l17.77,35.79h-6.11l-3.15-6.67H171.58l-3.31,6.67h-6Zm6.62,24.19-6.41-13.5L174,799.28Z"/><path class="cls-2" d="M212.46,775.76H224q6.16,0,9.54,2.67a9,9,0,0,1,3.39,7.51,11.12,11.12,0,0,1-1.43,5.7,12.28,12.28,0,0,1-4.55,4.28,37.16,37.16,0,0,1-8.27,3.31l-4.79,1.37v10.28h-5.45Zm9.42,18.32a19.3,19.3,0,0,0,7.23-3.26,5.87,5.87,0,0,0,2.24-4.68,4.64,4.64,0,0,0-1.93-4,9,9,0,0,0-5.4-1.42h-6.11V795.2Z"/><path class="cls-2" d="M252.17,775.09h.51l17.77,35.79h-6.11l-3.16-6.67H243.67l-3.31,6.67h-6Zm6.62,24.19-6.41-13.5-6.32,13.5Z"/><path class="cls-2" d="M274.62,775.76H287.2q5.55,0,8.58,2.44a8.39,8.39,0,0,1,3,6.92q0,6-5.6,9.17l6.92,16.59h-6l-5.75-14.66-.36.1-8,2.4v12.16h-5.45Zm10.64,16.39a16,16,0,0,0,6.14-2.7,5.25,5.25,0,0,0,1.76-4.17,3.87,3.87,0,0,0-1.68-3.34,8.06,8.06,0,0,0-4.74-1.19h-6.67v12.77Z"/><path class="cls-2" d="M312.55,780.8H302.22v-5h26.06v5H318v30.08h-5.4Z"/><path class="cls-2" d="M333.32,775.76h22.25v5h-16.8v7.94H349v5H338.77v12.06h17.06v5H333.32Z"/><path class="cls-2" d="M371.35,775.76h9.88a24.34,24.34,0,0,1,10.54,2.08,15.07,15.07,0,0,1,6.69,6,20.43,20.43,0,0,1,0,18.91,15,15,0,0,1-6.69,6,24.34,24.34,0,0,1-10.54,2.08h-9.88ZM382,805.84a14.76,14.76,0,0,0,7-1.55,11.12,11.12,0,0,0,4.58-4.38,14.2,14.2,0,0,0,0-13.21,11.17,11.17,0,0,0-4.58-4.35,14.76,14.76,0,0,0-7-1.55H376.8v25Z"/><path class="cls-2" d="M407,775.76h22.25v5h-16.8v7.94h10.18v5H412.44v12.06h17.05v5H407Z"/><path class="cls-2" d="M452.1,801.31a8.81,8.81,0,0,1-3.26,7.23c-2.17,1.77-5.13,2.65-8.86,2.65a26.44,26.44,0,0,1-3.08-.2,24,24,0,0,1-2.67-.46v-5c.74.17,1.63.32,2.67.46a23,23,0,0,0,2.83.2,8.05,8.05,0,0,0,4.78-1.25,4.09,4.09,0,0,0,1.73-3.54,5.24,5.24,0,0,0-1-3.15,14.12,14.12,0,0,0-3.59-3.11l-2.55-1.68a14.65,14.65,0,0,1-4.12-4,8.66,8.66,0,0,1-1.32-4.73,8,8,0,0,1,3.25-6.75c2.18-1.65,5.11-2.47,8.81-2.47a18.65,18.65,0,0,1,2.17.13c.76.08,1.33.16,1.7.23v5a16.61,16.61,0,0,0-1.78-.26c-.71-.07-1.44-.1-2.19-.1a7.79,7.79,0,0,0-4.48,1.12,3.42,3.42,0,0,0-1.63,2.95,3.85,3.85,0,0,0,.82,2.47,13.14,13.14,0,0,0,2.9,2.47l2.49,1.68Q452.1,795.52,452.1,801.31Z"/><path class="cls-2" d="M475,801.31a8.81,8.81,0,0,1-3.26,7.23q-3.27,2.65-8.86,2.65a26.44,26.44,0,0,1-3.08-.2,23.16,23.16,0,0,1-2.67-.46v-5c.74.17,1.63.32,2.67.46a22.88,22.88,0,0,0,2.82.2,8.09,8.09,0,0,0,4.79-1.25,4.11,4.11,0,0,0,1.73-3.54,5.24,5.24,0,0,0-1-3.15,14.3,14.3,0,0,0-3.59-3.11l-2.55-1.68a14.52,14.52,0,0,1-4.12-4,8.67,8.67,0,0,1-1.33-4.73,8,8,0,0,1,3.26-6.75q3.25-2.48,8.81-2.47a18.36,18.36,0,0,1,2.16.13c.77.08,1.34.16,1.71.23v5a17,17,0,0,0-1.78-.26c-.72-.07-1.45-.1-2.19-.1a7.77,7.77,0,0,0-4.48,1.12,3.42,3.42,0,0,0-1.63,2.95,3.9,3.9,0,0,0,.81,2.47,13.24,13.24,0,0,0,2.91,2.47l2.49,1.68Q475,795.52,475,801.31Z"/><path class="cls-2" d="M480.81,775.76h22.25v5h-16.8v7.94h10.18v5H486.26v12.06h17.05v5h-22.5Z"/><path class="cls-2" d="M526.48,780.8H516.14v-5h26.07v5H531.87v30.08h-5.39Z"/><path class="cls-2" d="M547.25,775.76h5.45v35.12h-5.45Z"/><path class="cls-2" d="M560.43,775.14h.46l16.29,14.06,16-14.06h.46v35.74h-5.45V786l-11.05,10H577l-11.1-10v24.89h-5.45Z"/><path class="cls-2" d="M601.42,775.76h22.24v5h-16.8v7.94h10.19v5H606.86v12.06h17.06v5h-22.5Z"/><path class="cls-2" d="M629.77,810.37a3.42,3.42,0,0,1-1-2.54,3.49,3.49,0,0,1,3.62-3.62,3.61,3.61,0,0,1,2.62,1,3.5,3.5,0,0,1,1,2.6,3.4,3.4,0,0,1-1,2.54,3.61,3.61,0,0,1-2.62,1A3.51,3.51,0,0,1,629.77,810.37Zm-.51-34.61h6.26l-1.32,25.45h-3.61Z"/></svg>